<svg version="1.1" xmlns="http://www.w3.org/2000/svg" viewBox="0 0 561.9608895409706 755.5914456738301" width="561.9608895409706" height="755.5914456738301">
  <!-- svg-source:excalidraw -->
  
  <defs>
    <style class="style-fonts">
      @font-face {
        font-family: "Virgil";
        src: url("https://excalidraw.com/Virgil.woff2");
      }
      @font-face {
        font-family: "Cascadia";
        src: url("https://excalidraw.com/Cascadia.woff2");
      }
      @font-face {
        font-family: "Assistant";
        src: url("https://excalidraw.com/Assistant-Regular.woff2");
      }
    </style>
    
  </defs>
  <rect x="0" y="0" width="561.9608895409706" height="755.5914456738301" fill="#ffffff"></rect><g stroke-linecap="round" transform="translate(35.10049462080099 462.44661458333303) rotate(0 248.22981770833326 141.57241554524853)"><path d="M32 0 C120.42 0.15, 209.52 1.11, 464.46 0 M32 0 C197.82 0.63, 364.37 0.95, 464.46 0 M464.46 0 C486.03 0.77, 497.83 8.93, 496.46 32 M464.46 0 C487.52 1.46, 496.27 9.34, 496.46 32 M496.46 32 C497.65 79.14, 495.16 124.36, 496.46 251.14 M496.46 32 C496.1 85.55, 495.47 137.63, 496.46 251.14 M496.46 251.14 C495.85 270.83, 485.25 281.88, 464.46 283.14 M496.46 251.14 C497.06 273.16, 483.79 283.09, 464.46 283.14 M464.46 283.14 C342.7 282.17, 221.3 281.04, 32 283.14 M464.46 283.14 C300.07 283.26, 135.57 283.32, 32 283.14 M32 283.14 C12.52 281.65, -1.84 274.22, 0 251.14 M32 283.14 C10.33 284.67, -1.34 271.43, 0 251.14 M0 251.14 C-0.63 167.07, 0.77 81.28, 0 32 M0 251.14 C-0.27 182.22, -1.21 112.49, 0 32 M0 32 C0.38 11.78, 9.91 -0.11, 32 0 M0 32 C2.16 12.67, 10.11 -1.04, 32 0" stroke="#9c36b5" stroke-width="2" fill="none"></path></g><g stroke-linecap="round"><g transform="translate(36.134203818959065 536.5457415189053) rotate(0 246.13181237297363 0.9317580172651105)"><path d="M0.83 0.84 C83.09 1.01, 410.53 1.93, 492.45 1.91 M-0.19 0.24 C81.99 -0.02, 409.48 -0.17, 491.43 0.08" stroke="#9c36b5" stroke-width="2" fill="none"></path></g></g><mask></mask><g transform="translate(192.11022827762702 479.17933666421186) rotate(0 74.3082950121086 22.50677126380515)"><text x="0" y="31.545490603349492" font-family="Virgil, Segoe UI Emoji" font-size="36.01083402208846px" fill="#9c36b5" text-anchor="start" style="white-space: pre;" direction="ltr" dominant-baseline="alphabetic">Location</text></g><g transform="translate(53.43703519580032 566.5562800244052) rotate(0 230.81110025519266 75.6356675297261)"><text x="0" y="21.20219032193284" font-family="Virgil, Segoe UI Emoji" font-size="24.203413609512374px" fill="#9c36b5" text-anchor="start" style="white-space: pre;" direction="ltr" dominant-baseline="alphabetic">&gt; Title</text><text x="0" y="51.45645733382331" font-family="Virgil, Segoe UI Emoji" font-size="24.203413609512374px" fill="#9c36b5" text-anchor="start" style="white-space: pre;" direction="ltr" dominant-baseline="alphabetic">&gt; Description</text><text x="0" y="81.71072434571377" font-family="Virgil, Segoe UI Emoji" font-size="24.203413609512374px" fill="#9c36b5" text-anchor="start" style="white-space: pre;" direction="ltr" dominant-baseline="alphabetic">&gt; Address</text><text x="0" y="111.96499135760425" font-family="Virgil, Segoe UI Emoji" font-size="24.203413609512374px" fill="#9c36b5" text-anchor="start" style="white-space: pre;" direction="ltr" dominant-baseline="alphabetic">&gt; Coordinates (Latitude + Longtitude)</text><text x="0" y="142.21925836949472" font-family="Virgil, Segoe UI Emoji" font-size="24.203413609512374px" fill="#9c36b5" text-anchor="start" style="white-space: pre;" direction="ltr" dominant-baseline="alphabetic">&gt; Image</text></g><g stroke-linecap="round" transform="translate(41.347239412466934 10) rotate(0 249.36712867209047 124.75368923611086)"><path d="M32 0 C199.65 -2.45, 367.41 -1.14, 466.73 0 M32 0 C176.1 1.31, 320.32 1.46, 466.73 0 M466.73 0 C487.87 1.67, 497.68 12.42, 498.73 32 M466.73 0 C486.52 2.13, 498.43 11.42, 498.73 32 M498.73 32 C499.65 72.87, 496.37 116.85, 498.73 217.51 M498.73 32 C500.23 91.23, 499.81 151.51, 498.73 217.51 M498.73 217.51 C500.06 240.33, 486.78 251.03, 466.73 249.51 M498.73 217.51 C497.64 240.92, 488.91 251.21, 466.73 249.51 M466.73 249.51 C374.89 250.86, 284.68 251.47, 32 249.51 M466.73 249.51 C348 251.58, 228.19 250.97, 32 249.51 M32 249.51 C11.11 250.8, -0.99 240.75, 0 217.51 M32 249.51 C9.17 247.88, -1.94 240.06, 0 217.51 M0 217.51 C-2.45 169.54, 0.6 122.26, 0 32 M0 217.51 C0.09 160.17, -0.8 100.93, 0 32 M0 32 C1.83 11.36, 9.54 -0.02, 32 0 M0 32 C-0.1 11.53, 11.83 -0.54, 32 0" stroke="#099268" stroke-width="2" fill="none"></path></g><g stroke-linecap="round"><g transform="translate(42.385684741099794 84.43862583319378) rotate(0 247.30292064439408 0.7747719243113806)"><path d="M-0.89 1.02 C81.54 1.24, 412.87 1.83, 495.5 1.74 M0.84 0.51 C83.09 0.31, 412.67 -0.33, 494.89 -0.18" stroke="#099268" stroke-width="2" fill="none"></path></g></g><mask></mask><g transform="translate(232.65664530577544 24.104952239606973) rotate(0 40.75730571046489 22.80736984323903)"><text x="0" y="31.966809572283807" font-family="Virgil, Segoe UI Emoji" font-size="36.49179174918243px" fill="#099268" text-anchor="start" style="white-space: pre;" direction="ltr" dominant-baseline="alphabetic">User</text></g><g transform="translate(64.40051171186803 108.65946791207216) rotate(0 70.72222527002197 63.592311984112484)"><text x="0" y="22.28274611923305" font-family="Virgil, Segoe UI Emoji" font-size="25.436924793645034px" fill="#099268" text-anchor="start" style="white-space: pre;" direction="ltr" dominant-baseline="alphabetic">&gt; Name</text><text x="0" y="54.07890211128934" font-family="Virgil, Segoe UI Emoji" font-size="25.436924793645034px" fill="#099268" text-anchor="start" style="white-space: pre;" direction="ltr" dominant-baseline="alphabetic">&gt; Email</text><text x="0" y="85.87505810334564" font-family="Virgil, Segoe UI Emoji" font-size="25.436924793645034px" fill="#099268" text-anchor="start" style="white-space: pre;" direction="ltr" dominant-baseline="alphabetic">&gt; Password</text><text x="0" y="117.67121409540192" font-family="Virgil, Segoe UI Emoji" font-size="25.436924793645034px" fill="#099268" text-anchor="start" style="white-space: pre;" direction="ltr" dominant-baseline="alphabetic">&gt; Image</text></g><g stroke-linecap="round"><g transform="translate(166.91317064694556 266.9982638888887) rotate(0 -0.09289753050290983 96.9448324995326)"><path d="M-0.95 -1.18 C-0.85 31.42, 0.24 162.38, 0.28 195.07 M0.76 0.81 C0.79 33.11, 0.12 161.26, -0.28 193.27" stroke="#099268" stroke-width="2" fill="none"></path></g><g transform="translate(166.91317064694556 266.9982638888887) rotate(0 -0.09289753050290983 96.9448324995326)"><path d="M-8.64 169.71 C-8.42 177.46, -3.14 182.21, -0.28 193.27 M-8.64 169.71 C-4.88 177.94, -2.06 185.45, -0.28 193.27" stroke="#099268" stroke-width="2" fill="none"></path></g><g transform="translate(166.91317064694556 266.9982638888887) rotate(0 -0.09289753050290983 96.9448324995326)"><path d="M8.46 169.85 C4.01 177.43, 4.62 182.14, -0.28 193.27 M8.46 169.85 C6.33 177.94, 3.26 185.39, -0.28 193.27" stroke="#099268" stroke-width="2" fill="none"></path></g></g><mask></mask><g transform="translate(10 339.86458333333303) rotate(0 72.44826519370099 20.396484375)"><text x="0" y="28.587712500000055" font-family="Virgil, Segoe UI Emoji" font-size="32.63437500000006px" fill="#099268" text-anchor="start" style="white-space: pre;" direction="ltr" dominant-baseline="alphabetic">has many</text></g><g stroke-linecap="round"><g transform="translate(368.47572102233437 458.8602890282409) rotate(0 0.23154728791149637 -96.01204576490818)"><path d="M-0.7 0.34 C-0.44 -31.42, 0.57 -158.47, 0.8 -190.37 M1.13 -0.53 C1.37 -32.68, 0.37 -160.79, 0.22 -192.36" stroke="#9c36b5" stroke-width="2" fill="none"></path></g><g transform="translate(368.47572102233437 458.8602890282409) rotate(0 0.23154728791149637 -96.01204576490818)"><path d="M8.92 -168.92 C7.42 -173.28, 5.23 -178.92, 0.22 -192.36 M8.92 -168.92 C7.08 -175.98, 5.01 -180.33, 0.22 -192.36" stroke="#9c36b5" stroke-width="2" fill="none"></path></g><g transform="translate(368.47572102233437 458.8602890282409) rotate(0 0.23154728791149637 -96.01204576490818)"><path d="M-8.19 -168.82 C-5.7 -173.09, -3.91 -178.76, 0.22 -192.36 M-8.19 -168.82 C-5.54 -175.77, -3.14 -180.14, 0.22 -192.36" stroke="#9c36b5" stroke-width="2" fill="none"></path></g></g><mask></mask><g transform="translate(388.7457100976112 341.9913654171296) rotate(0 81.60758972167969 20.396484375)"><text x="0" y="28.587712500000055" font-family="Virgil, Segoe UI Emoji" font-size="32.63437500000006px" fill="#9c36b5" text-anchor="start" style="white-space: pre;" direction="ltr" dominant-baseline="alphabetic">belongs to</text></g></svg>