<svg version="1.1" xmlns="http://www.w3.org/2000/svg" viewBox="0 0 2922.457113103457 2179.588169642858" width="2922.457113103457" height="2179.588169642858">
  <!-- svg-source:excalidraw -->
  
  <defs>
    <style class="style-fonts">
      @font-face {
        font-family: "Virgil";
        src: url("https://excalidraw.com/Virgil.woff2");
      }
      @font-face {
        font-family: "Cascadia";
        src: url("https://excalidraw.com/Cascadia.woff2");
      }
      @font-face {
        font-family: "Assistant";
        src: url("https://excalidraw.com/Assistant-Regular.woff2");
      }
    </style>
    
  </defs>
  <rect x="0" y="0" width="2922.457113103457" height="2179.588169642858" fill="#ffffff"></rect><g stroke-linecap="round" transform="translate(1037.6941852760756 13.07161458333951) rotate(0 435.181640625 292.7265625)"><path d="M32 0 C200.53 -0.98, 369.35 0.49, 838.36 0 M32 0 C287.23 0.66, 542.1 1.22, 838.36 0 M838.36 0 C859.24 -0.72, 869.83 12.08, 870.36 32 M838.36 0 C860.91 -1.49, 871.7 10.59, 870.36 32 M870.36 32 C868.41 185.16, 868.82 339.5, 870.36 553.45 M870.36 32 C870.04 238.54, 870.48 446.05, 870.36 553.45 M870.36 553.45 C871.11 573.63, 858.74 586.53, 838.36 585.45 M870.36 553.45 C869.92 573.61, 861.88 583.79, 838.36 585.45 M838.36 585.45 C517.9 586.23, 196.43 586.97, 32 585.45 M838.36 585.45 C517.56 582.66, 197.61 582.77, 32 585.45 M32 585.45 C12.23 586.58, 1.87 574.72, 0 553.45 M32 585.45 C11.93 584.11, 0.44 574.73, 0 553.45 M0 553.45 C0.56 426.56, 0.67 299.68, 0 32 M0 553.45 C-0.52 429.29, -0.66 304.24, 0 32 M0 32 C-0.76 11.5, 12.05 1.83, 32 0 M0 32 C1.71 9.39, 12.43 1.26, 32 0" stroke="#1e1e1e" stroke-width="1" fill="none"></path></g><g stroke-linecap="round"><g transform="translate(1038.3074665260756 122.32552083333951) rotate(0 434.419921875 0.1171875)"><path d="M1.13 0.9 C145.9 0.91, 724.73 0.21, 869.25 0.25 M0.26 0.32 C144.86 0.53, 724.04 1.97, 868.51 1.79" stroke="#1e1e1e" stroke-width="1" fill="none"></path></g></g><mask></mask><g transform="translate(1084.4480915260756 41.17814806586762) rotate(0 77.92011260986328 22.645952008735946)"><text x="0" y="31.740566335444292" font-family="Virgil, Segoe UI Emoji" font-size="36.233523213977506px" fill="#9c36b5" text-anchor="start" style="white-space: pre;" direction="ltr" dominant-baseline="alphabetic">App title</text></g><g stroke-linecap="round" transform="translate(1126.7176227760756 183.6848958333395) rotate(0 211.609375 37.564453125)"><path d="M18.78 0 C159.55 -2.97, 298.51 -2.82, 404.44 0 M18.78 0 C161.96 -0.64, 306.23 -1.37, 404.44 0 M404.44 0 C415.22 -0.43, 422.82 6.98, 423.22 18.78 M404.44 0 C417.46 -1.9, 424.78 4.98, 423.22 18.78 M423.22 18.78 C421.45 30.85, 422 46.12, 423.22 56.35 M423.22 18.78 C423.2 32.15, 424.1 46.62, 423.22 56.35 M423.22 56.35 C422.56 70.5, 416.27 76.61, 404.44 75.13 M423.22 56.35 C425.03 66.72, 416.02 73.61, 404.44 75.13 M404.44 75.13 C291.78 75.08, 180.59 73.51, 18.78 75.13 M404.44 75.13 C253.88 77.25, 103.18 76.84, 18.78 75.13 M18.78 75.13 C6.61 75.45, -0.8 68.8, 0 56.35 M18.78 75.13 C4.85 75.16, -0.56 68.37, 0 56.35 M0 56.35 C-1.61 43.35, -1.71 27.86, 0 18.78 M0 56.35 C-0.38 47.83, 0.39 39.51, 0 18.78 M0 18.78 C-0.42 8.13, 6.18 -0.43, 18.78 0 M0 18.78 C-1.46 5.39, 4.72 -1.39, 18.78 0" stroke="#099268" stroke-width="1" fill="none"></path></g><g stroke-linecap="round" transform="translate(1132.7332477760756 185.3645833333395) rotate(0 39.28515625 36.380859375)"><path d="M45.82 1.1 C53.33 1.68, 62.62 5.32, 68.12 10.44 C73.62 15.55, 77.82 24.74, 78.84 31.82 C79.86 38.89, 77.93 46.56, 74.25 52.89 C70.57 59.22, 63.59 66.53, 56.77 69.8 C49.94 73.07, 40.82 73.95, 33.3 72.51 C25.79 71.07, 17.22 66.14, 11.69 61.16 C6.16 56.17, 1.24 49.62, 0.11 42.6 C-1.01 35.58, 1.28 25.61, 4.92 19.01 C8.56 12.41, 13.52 5.66, 21.94 2.98 C30.36 0.3, 48.73 2.19, 55.45 2.94 C62.17 3.69, 62.7 6.87, 62.24 7.5 M33.18 0.16 C40.03 -1.41, 50.19 -0.28, 57.16 3.19 C64.13 6.67, 71.31 14.15, 75 20.99 C78.7 27.83, 80.97 37.38, 79.35 44.23 C77.73 51.08, 71.36 57.3, 65.3 62.09 C59.24 66.88, 50.37 72.02, 42.97 72.95 C35.56 73.88, 27.56 70.93, 20.87 67.66 C14.18 64.39, 6.37 59.58, 2.82 53.34 C-0.74 47.09, -1.88 37.65, -0.46 30.18 C0.97 22.71, 5.65 13.4, 11.35 8.52 C17.05 3.65, 29.73 1.96, 33.74 0.94 C37.76 -0.08, 35.33 2.16, 35.46 2.41" stroke="#099268" stroke-width="1" fill="none"></path></g><g transform="translate(1278.6980915260756 206.8684895833395) rotate(0 40.54998016357422 16.86772334908551)"><text x="0" y="23.641801046078292" font-family="Virgil, Segoe UI Emoji" font-size="26.988357358536863px" fill="#099268" text-anchor="start" style="white-space: pre;" direction="ltr" dominant-baseline="alphabetic">User 1</text></g><g stroke-linecap="round" transform="translate(1128.1863727760756 293.2102864583395) rotate(0 211.609375 37.564453125)"><path d="M18.78 0 C156.12 2.01, 292.06 2.12, 404.44 0 M18.78 0 C111.78 1.42, 204.31 0.63, 404.44 0 M404.44 0 C416.48 1.08, 422.92 7.41, 423.22 18.78 M404.44 0 C415.15 0.14, 424.66 8.15, 423.22 18.78 M423.22 18.78 C421.96 27.32, 421.61 35.48, 423.22 56.35 M423.22 18.78 C423.45 32.16, 423.89 45.23, 423.22 56.35 M423.22 56.35 C424.56 67.82, 418.06 73.99, 404.44 75.13 M423.22 56.35 C421.79 69.6, 415.88 73.47, 404.44 75.13 M404.44 75.13 C263.1 75.3, 124.27 74.3, 18.78 75.13 M404.44 75.13 C268.73 74.73, 131.89 75.16, 18.78 75.13 M18.78 75.13 C7.74 73.86, 0.88 70.48, 0 56.35 M18.78 75.13 C6.75 75.55, -0.92 67.43, 0 56.35 M0 56.35 C-0.59 45.4, 0.14 31.71, 0 18.78 M0 56.35 C0.21 42.34, 0.63 28.4, 0 18.78 M0 18.78 C-0.18 6.44, 4.98 0.67, 18.78 0 M0 18.78 C1.49 8.23, 6.35 -0.69, 18.78 0" stroke="#099268" stroke-width="1" fill="none"></path></g><g stroke-linecap="round" transform="translate(1134.2019977760756 294.8899739583395) rotate(0 39.28515625 36.380859375)"><path d="M53.67 3.43 C60.85 5.56, 69.32 11.98, 73.35 17.87 C77.37 23.77, 78.4 31.82, 77.82 38.8 C77.23 45.77, 74.6 54.35, 69.84 59.7 C65.08 65.06, 56.8 69.09, 49.24 70.92 C41.69 72.75, 31.6 73.35, 24.51 70.7 C17.43 68.04, 10.65 61.22, 6.73 54.99 C2.8 48.76, 0.66 40.36, 0.95 33.3 C1.24 26.24, 3.82 18.12, 8.48 12.62 C13.15 7.11, 20.99 1.77, 28.94 0.28 C36.89 -1.2, 51.63 2.94, 56.21 3.71 C60.79 4.47, 56.64 4.29, 56.4 4.87 M56.52 2.47 C63.06 5.06, 69.09 12.87, 72.61 19.05 C76.12 25.23, 78.18 32.56, 77.6 39.53 C77.02 46.51, 74.31 55.68, 69.12 60.9 C63.93 66.12, 53.95 69.3, 46.45 70.86 C38.95 72.41, 31.04 72.88, 24.14 70.23 C17.23 67.59, 8.91 61.32, 5.02 54.99 C1.12 48.65, -0.3 39.66, 0.77 32.22 C1.83 24.79, 6.42 15.69, 11.42 10.4 C16.41 5.1, 23.17 1.81, 30.73 0.47 C38.3 -0.87, 52.58 1.59, 56.8 2.37 C61.01 3.16, 56.43 4.44, 56.02 5.19" stroke="#099268" stroke-width="1" fill="none"></path></g><g transform="translate(1280.1668415260756 316.3938802083395) rotate(0 46.48651885986328 16.867723349085566)"><text x="0" y="23.641801046078292" font-family="Virgil, Segoe UI Emoji" font-size="26.988357358536863px" fill="#099268" text-anchor="start" style="white-space: pre;" direction="ltr" dominant-baseline="alphabetic">User 2</text></g><g transform="translate(1424.0066852760756 210.2942708333395) rotate(0 43.22996520996094 12.5)"><text x="0" y="17.52" font-family="Virgil, Segoe UI Emoji" font-size="20px" fill="#9c36b5" text-anchor="start" style="white-space: pre;" direction="ltr" dominant-baseline="alphabetic">6 Places</text></g><g transform="translate(1430.4134388161146 318.7278645833395) rotate(0 43.94996643066406 12.5)"><text x="0" y="17.52" font-family="Virgil, Segoe UI Emoji" font-size="20px" fill="#9c36b5" text-anchor="start" style="white-space: pre;" direction="ltr" dominant-baseline="alphabetic">2 Places</text></g><g stroke-linecap="round" transform="translate(1689.0809040260756 49.79817708333951) rotate(0 85.451171875 17.5)"><path d="M8.75 0 C47.64 -2.8, 82.02 0.05, 162.15 0 M8.75 0 C57.75 0.13, 106.33 -0.48, 162.15 0 M162.15 0 C169.55 0.57, 172.61 2.74, 170.9 8.75 M162.15 0 C166.1 -1.27, 169.74 1.97, 170.9 8.75 M170.9 8.75 C169.53 11.45, 170.49 17.91, 170.9 26.25 M170.9 8.75 C170.85 15.52, 170.13 21.72, 170.9 26.25 M170.9 26.25 C172.87 31.49, 166.23 36.09, 162.15 35 M170.9 26.25 C169.37 33.4, 168.19 36.48, 162.15 35 M162.15 35 C110.61 35.18, 55.52 37.01, 8.75 35 M162.15 35 C106.15 33.97, 49.67 32.63, 8.75 35 M8.75 35 C1.54 36.78, -1.82 32.63, 0 26.25 M8.75 35 C4.28 33.29, 1.33 32.81, 0 26.25 M0 26.25 C1.08 24.27, -0.82 18.09, 0 8.75 M0 26.25 C-0.12 21.75, 0.2 16.24, 0 8.75 M0 8.75 C-1.23 3.87, 3.73 -1.28, 8.75 0 M0 8.75 C-0.4 1.11, 3.47 -1, 8.75 0" stroke="#868e96" stroke-width="1" fill="none"></path></g><g transform="translate(1695.8321399879896 54.79817708333951) rotate(0 78.69993591308594 12.5)"><text x="78.69993591308594" y="17.52" font-family="Virgil, Segoe UI Emoji" font-size="20px" fill="#868e96" text-anchor="middle" style="white-space: pre;" direction="ltr" dominant-baseline="alphabetic">Login / Register</text></g><g stroke-linecap="round" transform="translate(1514.9715290260756 49.42708333333951) rotate(0 65.447265625 17.5)"><path d="M8.75 0 C36.77 -0.33, 59.72 0.37, 122.14 0 M8.75 0 C50.21 0.62, 92.96 0.16, 122.14 0 M122.14 0 C128.03 1.2, 132.22 2.39, 130.89 8.75 M122.14 0 C126.03 0.22, 131.4 4.11, 130.89 8.75 M130.89 8.75 C130.54 15.9, 131.11 22.47, 130.89 26.25 M130.89 8.75 C131.57 13.5, 131.27 16.33, 130.89 26.25 M130.89 26.25 C131.33 30.6, 128.19 36.86, 122.14 35 M130.89 26.25 C133.02 31.09, 128.39 32.98, 122.14 35 M122.14 35 C84.45 35.83, 47.82 34.53, 8.75 35 M122.14 35 C85.5 34.42, 49.68 33.72, 8.75 35 M8.75 35 C4.1 36.51, 0.96 30.14, 0 26.25 M8.75 35 C4.94 33.76, -0.79 33.38, 0 26.25 M0 26.25 C1.7 20.4, 0.1 14.67, 0 8.75 M0 26.25 C-0.05 22.06, -0.44 18.65, 0 8.75 M0 8.75 C-1.18 1.01, 2.18 -1.88, 8.75 0 M0 8.75 C-0.81 2.21, 1.2 -1.26, 8.75 0" stroke="#2f9e44" stroke-width="1" fill="none"></path></g><g transform="translate(1552.6488208961928 54.42708333333951) rotate(0 27.769973754882812 12.5)"><text x="27.769973754882812" y="17.52" font-family="Virgil, Segoe UI Emoji" font-size="20px" fill="#2f9e44" text-anchor="middle" style="white-space: pre;" direction="ltr" dominant-baseline="alphabetic">Users</text></g><g stroke-linecap="round" transform="translate(1335.9090290260756 53.08333333333951) rotate(0 74.255859375 17.5)"><path d="M8.75 0 C52.73 0.77, 91.89 -1.4, 139.76 0 M8.75 0 C49.75 0.91, 90.27 0.6, 139.76 0 M139.76 0 C147.01 -1.18, 150.47 2.53, 148.51 8.75 M139.76 0 C145.2 0.53, 146.73 4.48, 148.51 8.75 M148.51 8.75 C148.54 13.55, 147.39 20.06, 148.51 26.25 M148.51 8.75 C149.17 13.03, 148.61 19.22, 148.51 26.25 M148.51 26.25 C148.3 32.91, 144.23 34.66, 139.76 35 M148.51 26.25 C148.56 32.69, 146.53 37.04, 139.76 35 M139.76 35 C89.34 36.85, 40.43 32.99, 8.75 35 M139.76 35 C102.74 35.98, 67.17 35.16, 8.75 35 M8.75 35 C3.04 36.51, -1.1 31.56, 0 26.25 M8.75 35 C4.54 33.57, 0.24 31.1, 0 26.25 M0 26.25 C0.56 20.49, 0.21 14.82, 0 8.75 M0 26.25 C0.23 21.97, -0.48 19.74, 0 8.75 M0 8.75 C-1.31 1.86, 1.67 -0.93, 8.75 0 M0 8.75 C-0.97 2.28, 1.81 0.51, 8.75 0" stroke="#9c36b5" stroke-width="1" fill="none"></path></g><g transform="translate(1349.5149250221693 58.08333333333951) rotate(0 60.64996337890625 12.5)"><text x="60.64996337890625" y="17.52" font-family="Virgil, Segoe UI Emoji" font-size="20px" fill="#9c36b5" text-anchor="middle" style="white-space: pre;" direction="ltr" dominant-baseline="alphabetic">+ New Place</text></g><g stroke-linecap="round"><g transform="translate(1241.5271930885756 364.1272786458395) rotate(0 -2.18994140625 232.841796875)"><path d="M-0.64 0.38 C-1.42 77.96, -4.58 388.03, -5.18 465.41 M1.23 -0.47 C0.87 77.31, -1.86 389.16, -2.89 466.81" stroke="#868e96" stroke-width="1" fill="none"></path></g><g transform="translate(1241.5271930885756 364.1272786458395) rotate(0 -2.18994140625 232.841796875)"><path d="M-11.19 443.22 C-8.43 448.06, -7.35 455.77, -2.89 466.81 M-11.19 443.22 C-9.85 448.82, -7.18 453.17, -2.89 466.81" stroke="#868e96" stroke-width="1" fill="none"></path></g><g transform="translate(1241.5271930885756 364.1272786458395) rotate(0 -2.18994140625 232.841796875)"><path d="M5.91 443.41 C4.22 448.11, 0.85 455.76, -2.89 466.81 M5.91 443.41 C3.59 448.82, 2.6 453.13, -2.89 466.81" stroke="#868e96" stroke-width="1" fill="none"></path></g></g><mask></mask><g stroke-linecap="round" transform="translate(1065.8393675677414 888.6406250000056) rotate(0 435.18164062500006 292.7265625)"><path d="M32 0 C248.85 1.12, 466.53 0.35, 838.36 0 M32 0 C263.94 -1.77, 496.13 -1.98, 838.36 0 M838.36 0 C859.87 -1.77, 871.9 12.31, 870.36 32 M838.36 0 C858.46 1.16, 871.96 10.55, 870.36 32 M870.36 32 C870.3 168.51, 871.24 304.59, 870.36 553.45 M870.36 32 C870.7 158.36, 871.44 284.6, 870.36 553.45 M870.36 553.45 C868.72 574.06, 860.15 585.58, 838.36 585.45 M870.36 553.45 C869.51 572.93, 860.15 586.44, 838.36 585.45 M838.36 585.45 C592.5 587, 345 587.42, 32 585.45 M838.36 585.45 C619.55 588.38, 400.24 588.38, 32 585.45 M32 585.45 C10.35 584.85, 0.85 573.27, 0 553.45 M32 585.45 C12.32 583.54, -1.42 574.65, 0 553.45 M0 553.45 C0.08 445.36, 0.07 336.55, 0 32 M0 553.45 C2.12 360.27, 1.99 167.52, 0 32 M0 32 C0.97 9.42, 12.4 0, 32 0 M0 32 C1.15 9.42, 9.47 1.61, 32 0" stroke="#1e1e1e" stroke-width="1" fill="none"></path></g><g stroke-linecap="round"><g transform="translate(1066.4526488177414 997.8945312500056) rotate(0 434.41992187500006 0.1171875)"><path d="M0.37 -0.26 C145.1 -0.12, 723.12 -0.11, 868.05 0.09 M-0.9 -1.45 C144.24 -1.05, 725.23 1.48, 870.34 1.55" stroke="#1e1e1e" stroke-width="1" fill="none"></path></g></g><mask></mask><g transform="translate(1112.5932738177414 916.7471584825336) rotate(0 77.92011260986328 22.64595200873589)"><text x="0" y="31.740566335444292" font-family="Virgil, Segoe UI Emoji" font-size="36.233523213977506px" fill="#9c36b5" text-anchor="start" style="white-space: pre;" direction="ltr" dominant-baseline="alphabetic">App title</text></g><g stroke-linecap="round" transform="translate(1543.1167113177414 924.9960937500056) rotate(0 65.447265625 17.5)"><path d="M8.75 0 C48.02 0.03, 89.29 -2.55, 122.14 0 M8.75 0 C49.12 -1.45, 91.36 -1.03, 122.14 0 M122.14 0 C127.24 -1.62, 131.29 3.77, 130.89 8.75 M122.14 0 C128.11 1.37, 132.52 4.91, 130.89 8.75 M130.89 8.75 C130.34 12.89, 132.24 17.3, 130.89 26.25 M130.89 8.75 C130.79 15.24, 131.31 21.6, 130.89 26.25 M130.89 26.25 C132.33 30.42, 126.74 34.88, 122.14 35 M130.89 26.25 C128.78 31.49, 129.24 33.66, 122.14 35 M122.14 35 C82.37 33.46, 39.24 35.85, 8.75 35 M122.14 35 C96.26 34.05, 70.27 34.68, 8.75 35 M8.75 35 C3.92 33.91, -1.04 33.48, 0 26.25 M8.75 35 C4.22 36.64, -1.64 30.84, 0 26.25 M0 26.25 C-1.06 22.69, -0.22 16.73, 0 8.75 M0 26.25 C0.58 21.65, -0.66 18.36, 0 8.75 M0 8.75 C0.3 2.7, 3.3 -0.66, 8.75 0 M0 8.75 C-0.17 1.58, 1.15 -0.79, 8.75 0" stroke="#2f9e44" stroke-width="1" fill="none"></path></g><g transform="translate(1580.7940031878586 929.9960937500056) rotate(0 27.769973754882812 12.5)"><text x="27.769973754882812" y="17.52" font-family="Virgil, Segoe UI Emoji" font-size="20px" fill="#2f9e44" text-anchor="middle" style="white-space: pre;" direction="ltr" dominant-baseline="alphabetic">Users</text></g><g stroke-linecap="round" transform="translate(1364.0542113177414 928.6523437500056) rotate(0 74.255859375 17.5)"><path d="M8.75 0 C53.79 3.07, 98.23 -0.41, 139.76 0 M8.75 0 C42.9 -0.89, 77.99 0.34, 139.76 0 M139.76 0 C145.71 1.2, 149.93 4.65, 148.51 8.75 M139.76 0 C143.48 -0.73, 147.61 2.27, 148.51 8.75 M148.51 8.75 C150.16 14.89, 150.14 19.97, 148.51 26.25 M148.51 8.75 C149.21 12.74, 148.04 18.14, 148.51 26.25 M148.51 26.25 C146.68 31.57, 146.69 33.84, 139.76 35 M148.51 26.25 C149.96 30.74, 146.43 36.61, 139.76 35 M139.76 35 C111.86 35.09, 86.09 36.26, 8.75 35 M139.76 35 C109.15 34.46, 77.01 35.7, 8.75 35 M8.75 35 C4.05 36.42, -1.43 31.01, 0 26.25 M8.75 35 C2.83 36.87, -0.47 30.88, 0 26.25 M0 26.25 C-0.92 20.55, 1.55 13.91, 0 8.75 M0 26.25 C0.24 21.47, 0.28 16.59, 0 8.75 M0 8.75 C-0.14 1.76, 1.38 -0.69, 8.75 0 M0 8.75 C-1.2 0.86, 1.97 -0.76, 8.75 0" stroke="#9c36b5" stroke-width="1" fill="none"></path></g><g transform="translate(1377.6601073138352 933.6523437500056) rotate(0 60.64996337890625 12.5)"><text x="60.64996337890625" y="17.52" font-family="Virgil, Segoe UI Emoji" font-size="20px" fill="#9c36b5" text-anchor="middle" style="white-space: pre;" direction="ltr" dominant-baseline="alphabetic">+ New Place</text></g><g transform="translate(1146.8608519427416 1051.4908854166729) rotate(0 95.78372955322263 13.79431337332312)"><text x="0" y="19.33410962404968" font-family="Virgil, Segoe UI Emoji" font-size="22.070901397316987px" fill="#9c36b5" text-anchor="start" style="white-space: pre;" direction="ltr" dominant-baseline="alphabetic">User 2's Places: </text></g><g stroke-linecap="round" transform="translate(1158.4428831927416 1118.203125000006) rotate(0 111.14908854166671 152.27701822916663)"><path d="M32 0 C85.49 -0.83, 141.2 0.84, 190.3 0 M32 0 C81.45 1.16, 130.12 2.16, 190.3 0 M190.3 0 C212.24 0.85, 223.45 10.91, 222.3 32 M190.3 0 C211.51 -1.38, 223.67 9.09, 222.3 32 M222.3 32 C223.7 96.18, 223.56 162.28, 222.3 272.55 M222.3 32 C221.73 123.12, 222.9 215.4, 222.3 272.55 M222.3 272.55 C224.01 292.44, 213.08 303.02, 190.3 304.55 M222.3 272.55 C220.3 295.71, 209.75 303.78, 190.3 304.55 M190.3 304.55 C154.43 305.04, 117.22 306.28, 32 304.55 M190.3 304.55 C155.14 303.64, 122.17 304.24, 32 304.55 M32 304.55 C11.04 305.69, 0.08 291.92, 0 272.55 M32 304.55 C8.96 305.05, -1.58 294.14, 0 272.55 M0 272.55 C-0.46 215.93, 1.53 162.02, 0 32 M0 272.55 C0.24 196.7, 0.58 120.05, 0 32 M0 32 C0.57 9.13, 12.43 1.71, 32 0 M0 32 C2.03 12.3, 9.64 1.22, 32 0" stroke="#9c36b5" stroke-width="1" fill="none"></path></g><g stroke-linecap="round"><g transform="translate(1159.549654026075 1237.4934895833394) rotate(0 111.82942708333329 -1.1653645833333712)"><path d="M0 -0.89 C37.59 -1.37, 187.26 -2.51, 224.71 -2.86 M-1.46 1.26 C36.14 0.93, 186.66 -1.05, 224.31 -1.6" stroke="#9c36b5" stroke-width="1" fill="none"></path></g></g><mask></mask><g transform="translate(1211.1121540260751 1253.0533854166729) rotate(0 54.87840270996094 14.005318928544398)"><text x="0" y="19.629855010247823" font-family="Virgil, Segoe UI Emoji" font-size="22.40851028567103px" fill="#9c36b5" text-anchor="start" style="white-space: pre;" direction="ltr" dominant-baseline="alphabetic">Location 1</text></g><g stroke-linecap="round" transform="translate(1232.2710081927416 1146.796875000006) rotate(0 34.04947916666663 32.59114583333337)"><path d="M43.75 8.25 C48.94 13.02, 52.79 21.32, 59.35 24.75 M43.75 8.25 C49.28 14.67, 54.85 20.59, 59.35 24.75 M59.35 24.75 C67.12 33.16, 67.72 34.96, 59.35 41.25 M59.35 24.75 C65.99 34.93, 65.88 31.6, 59.35 41.25 M59.35 41.25 C55.6 43.1, 52.26 50.32, 43.75 56.93 M59.35 41.25 C55.71 44.35, 50.1 50.17, 43.75 56.93 M43.75 56.93 C35.46 66.84, 35.25 66.59, 26.25 56.93 M43.75 56.93 C34.29 64.48, 33.27 64.08, 26.25 56.93 M26.25 56.93 C22.77 54.65, 15.74 48.55, 8.75 41.25 M26.25 56.93 C21.03 51.67, 16.73 48.09, 8.75 41.25 M8.75 41.25 C-1.18 33.91, -0.09 31.65, 8.75 24.75 M8.75 41.25 C1.89 30.82, 0.87 35.05, 8.75 24.75 M8.75 24.75 C12.28 19.05, 18.35 15.6, 26.25 8.25 M8.75 24.75 C12.2 21.86, 15.2 17.42, 26.25 8.25 M26.25 8.25 C33.68 -0.55, 35.31 1.79, 43.75 8.25 M26.25 8.25 C34.33 -1.33, 34.69 -0.78, 43.75 8.25" stroke="#9c36b5" stroke-width="1" fill="none"></path></g><g stroke-linecap="round" transform="translate(1182.1668415260747 1298.7792968750055) rotate(0 86.7919921875 18.767903645833258)"><path d="M9.38 0 C60.31 2.08, 107.12 3.52, 164.2 0 C167.08 1.81, 173.53 1.31, 173.58 9.38 C174.31 15.88, 176.66 22.4, 173.58 28.15 C175.23 34.74, 168.86 39.56, 164.2 37.54 C119.75 35.42, 83.64 37.13, 9.38 37.54 C0.51 39.61, -3.5 32.56, 0 28.15 C2.75 20.1, 0.85 19.72, 0 9.38 C2.41 0, 4.75 -3.5, 9.38 0" stroke="none" stroke-width="0" fill="#9c36b5"></path><path d="M9.38 0 C41.98 -0.29, 77.31 -1.62, 164.2 0 M9.38 0 C68.73 0.38, 129.35 0.26, 164.2 0 M164.2 0 C168.87 1.43, 174.3 3.89, 173.58 9.38 M164.2 0 C171.64 1.65, 175.78 4.79, 173.58 9.38 M173.58 9.38 C172.41 13.51, 174.41 15.89, 173.58 28.15 M173.58 9.38 C174.34 14.28, 174.3 20.42, 173.58 28.15 M173.58 28.15 C172.46 35.39, 169.74 37.63, 164.2 37.54 M173.58 28.15 C172.48 32.85, 170.09 39.25, 164.2 37.54 M164.2 37.54 C115.77 37.66, 64.69 37.97, 9.38 37.54 M164.2 37.54 C120.73 37.97, 77.48 39.64, 9.38 37.54 M9.38 37.54 C1.63 36.11, 1.4 35.06, 0 28.15 M9.38 37.54 C4.46 35.27, 1.6 35.92, 0 28.15 M0 28.15 C1.38 22.33, -1.37 14.57, 0 9.38 M0 28.15 C-0.1 20.04, -0.74 12.77, 0 9.38 M0 9.38 C1.64 4.78, 4.1 -0.38, 9.38 0 M0 9.38 C1.38 1.04, 2.14 0.62, 9.38 0" stroke="#9c36b5" stroke-width="1" fill="none"></path></g><g transform="translate(1207.2384561094082 1306.0351562500055) rotate(0 66.75700124104821 14.608948601768589)"><text x="0" y="20.475902360238855" font-family="Virgil, Segoe UI Emoji" font-size="23.37431776282974px" fill="#ffffff" text-anchor="start" style="white-space: pre;" direction="ltr" dominant-baseline="alphabetic">view on map</text></g><g stroke-linecap="round" transform="translate(1188.485200901075 1355.0423177083394) rotate(0 32.75227864583337 17.5)"><path d="M8.75 0 C22.56 -0.33, 38.83 0.34, 56.75 0 M8.75 0 C23.25 0.87, 37.79 -0.81, 56.75 0 M56.75 0 C61.86 -1.94, 67.21 2.09, 65.5 8.75 M56.75 0 C63.01 -0.62, 63.33 1.03, 65.5 8.75 M65.5 8.75 C66.11 14.49, 65.33 21.43, 65.5 26.25 M65.5 8.75 C65.03 14.77, 65.94 19.89, 65.5 26.25 M65.5 26.25 C64.92 33.4, 63.63 35.73, 56.75 35 M65.5 26.25 C63.79 31.76, 64.3 33.51, 56.75 35 M56.75 35 C40.42 36.87, 23.06 35.88, 8.75 35 M56.75 35 C41.68 35.43, 25.69 35.58, 8.75 35 M8.75 35 C1.02 34.87, 1.23 31.11, 0 26.25 M8.75 35 C1.29 34.22, 2.07 33.26, 0 26.25 M0 26.25 C-0.93 20.56, -1.1 13.95, 0 8.75 M0 26.25 C0.34 21.65, 0.38 18.04, 0 8.75 M0 8.75 C1.14 2.67, 1.43 -1.02, 8.75 0 M0 8.75 C1.89 4.86, 2.05 -1.29, 8.75 0" stroke="#be4bdb" stroke-width="1" fill="none"></path></g><g transform="translate(1202.2375024350918 1360.0423177083394) rotate(0 18.999977111816406 12.5)"><text x="18.999977111816406" y="17.52" font-family="Virgil, Segoe UI Emoji" font-size="20px" fill="#be4bdb" text-anchor="middle" style="white-space: pre;" direction="ltr" dominant-baseline="alphabetic">edit</text></g><g stroke-linecap="round" transform="translate(1271.5597451719084 1355.5143229166733) rotate(0 42.862955729166686 17.5)"><path d="M8.75 0 C30.91 -0.34, 51.8 0.28, 76.98 0 M8.75 0 C34.44 -1.25, 60.01 0.27, 76.98 0 M76.98 0 C83.09 0.58, 84.06 1.39, 85.73 8.75 M76.98 0 C85.08 -0.19, 84.79 4.23, 85.73 8.75 M85.73 8.75 C84.78 12.43, 84.42 18.28, 85.73 26.25 M85.73 8.75 C85.22 13.71, 85.79 19.09, 85.73 26.25 M85.73 26.25 C84.13 30.27, 83.09 33.54, 76.98 35 M85.73 26.25 C84 32.67, 81.53 37.2, 76.98 35 M76.98 35 C48.51 34.28, 21.2 35.6, 8.75 35 M76.98 35 C59.92 35.44, 43.12 33.92, 8.75 35 M8.75 35 C1.04 33.82, -0.77 33.54, 0 26.25 M8.75 35 C0.84 32.87, 1.84 31.11, 0 26.25 M0 26.25 C-1.37 22.48, 0.93 15.37, 0 8.75 M0 26.25 C0.27 20.87, 0.69 14.43, 0 8.75 M0 8.75 C0.3 4.37, 3.69 -0.87, 8.75 0 M0 8.75 C-1.09 2.85, 4.43 1.99, 8.75 0" stroke="#be4bdb" stroke-width="1" fill="none"></path></g><g transform="translate(1284.0427341652353 1360.5143229166733) rotate(0 30.379966735839844 12.5)"><text x="30.379966735839844" y="17.52" font-family="Virgil, Segoe UI Emoji" font-size="20px" fill="#be4bdb" text-anchor="middle" style="white-space: pre;" direction="ltr" dominant-baseline="alphabetic">delete</text></g><g stroke-linecap="round" transform="translate(1534.5969223433099 1113.0276692708344) rotate(0 111.14908854166674 152.27701822916663)"><path d="M32 0 C79.63 -0.65, 123.26 -2.56, 190.3 0 M32 0 C94.45 -0.22, 158.11 0.4, 190.3 0 M190.3 0 C209.76 1.13, 220.87 9.97, 222.3 32 M190.3 0 C211.53 0.55, 224.34 10.44, 222.3 32 M222.3 32 C224.51 89.61, 223.24 145.2, 222.3 272.55 M222.3 32 C220.32 110.25, 221.23 187.94, 222.3 272.55 M222.3 272.55 C222.12 295.73, 212.36 306.43, 190.3 304.55 M222.3 272.55 C221.99 295.3, 211.95 303.42, 190.3 304.55 M190.3 304.55 C158.67 306.03, 125.34 304.57, 32 304.55 M190.3 304.55 C128.11 305.35, 65.47 305.52, 32 304.55 M32 304.55 C9.28 303.46, -1.19 292.11, 0 272.55 M32 304.55 C10.77 303.77, 0.99 294.07, 0 272.55 M0 272.55 C-0.94 184.48, 1 96.83, 0 32 M0 272.55 C2.08 207.43, 1.64 142.45, 0 32 M0 32 C-0.86 11.69, 11.57 -1.09, 32 0 M0 32 C-1.28 9.32, 12.46 0.55, 32 0" stroke="#9c36b5" stroke-width="1" fill="none"></path></g><g stroke-linecap="round"><g transform="translate(1535.703693176643 1232.3180338541679) rotate(0 111.82942708333326 -1.1653645833333712)"><path d="M0.46 -0.19 C37.45 -0.57, 185.74 -0.87, 222.98 -1.19 M-0.75 -1.33 C36.53 -1.5, 188 -2.82, 225.33 -2.71" stroke="#9c36b5" stroke-width="1" fill="none"></path></g></g><mask></mask><g transform="translate(1587.2661931766434 1247.8779296875014) rotate(0 59.79676818847656 14.005318928544398)"><text x="0" y="19.629855010247823" font-family="Virgil, Segoe UI Emoji" font-size="22.40851028567103px" fill="#9c36b5" text-anchor="start" style="white-space: pre;" direction="ltr" dominant-baseline="alphabetic">Location 2</text></g><g stroke-linecap="round" transform="translate(1608.4250473433099 1141.6214192708344) rotate(0 34.04947916666663 32.59114583333337)"><path d="M43.75 8.25 C48.07 11.93, 51.64 18.08, 59.35 24.75 M43.75 8.25 C48.64 13.9, 55.06 20.58, 59.35 24.75 M59.35 24.75 C69.87 32.81, 66.87 33.88, 59.35 41.25 M59.35 24.75 C68.82 34.84, 68.48 33.08, 59.35 41.25 M59.35 41.25 C54.97 44.06, 54.03 49.56, 43.75 56.93 M59.35 41.25 C54.11 47.95, 48.02 53.25, 43.75 56.93 M43.75 56.93 C35.28 64.19, 33.2 64.61, 26.25 56.93 M43.75 56.93 C37.08 67.05, 35.05 66.96, 26.25 56.93 M26.25 56.93 C23.82 53.14, 16.94 48.45, 8.75 41.25 M26.25 56.93 C21.22 51.88, 17.31 48.35, 8.75 41.25 M8.75 41.25 C0.86 33.16, 1.26 33.45, 8.75 24.75 M8.75 41.25 C-0.78 32.32, -1.08 35, 8.75 24.75 M8.75 24.75 C14.54 22.21, 17.67 17.35, 26.25 8.25 M8.75 24.75 C16.17 17.61, 22.06 11.07, 26.25 8.25 M26.25 8.25 C36.56 0.48, 35.54 1.9, 43.75 8.25 M26.25 8.25 C33.48 1.52, 32.94 -1.11, 43.75 8.25" stroke="#9c36b5" stroke-width="1" fill="none"></path></g><g stroke-linecap="round" transform="translate(1558.320880676643 1293.6038411458335) rotate(0 86.7919921875 18.767903645833258)"><path d="M9.38 0 C54 -1.29, 101.39 -3.78, 164.2 0 C172.25 2.73, 170.91 0.5, 173.58 9.38 C175.9 17.13, 174.05 22.2, 173.58 28.15 C172.48 32.94, 168.6 35, 164.2 37.54 C115.84 37.47, 60.96 37.27, 9.38 37.54 C0.24 39.27, -3.17 36.97, 0 28.15 C2.67 20.1, -1.53 14.58, 0 9.38 C1.64 6.64, 5.31 1.02, 9.38 0" stroke="none" stroke-width="0" fill="#9c36b5"></path><path d="M9.38 0 C58.56 2.07, 108.8 -1.64, 164.2 0 M9.38 0 C64.57 0.78, 120.72 0.44, 164.2 0 M164.2 0 C169.22 0.88, 174.21 4.73, 173.58 9.38 M164.2 0 C170.83 0.08, 171.55 3.66, 173.58 9.38 M173.58 9.38 C174.64 15.01, 174.57 17.05, 173.58 28.15 M173.58 9.38 C173.52 17.32, 173.78 23.63, 173.58 28.15 M173.58 28.15 C171.79 33.84, 172.27 39.16, 164.2 37.54 M173.58 28.15 C173.63 36.19, 168.83 39.66, 164.2 37.54 M164.2 37.54 C116.72 36.09, 70.71 36, 9.38 37.54 M164.2 37.54 C126.25 35.82, 88.63 36.24, 9.38 37.54 M9.38 37.54 C4.39 37.98, -0.68 33.82, 0 28.15 M9.38 37.54 C2.05 39.54, -1.58 33.77, 0 28.15 M0 28.15 C0.57 24.11, 1.61 19.1, 0 9.38 M0 28.15 C-0.61 21.01, 0.65 15.19, 0 9.38 M0 9.38 C0.54 5.03, 1.81 1.32, 9.38 0 M0 9.38 C-2.06 2.02, 4.11 -0.84, 9.38 0" stroke="#9c36b5" stroke-width="1" fill="none"></path></g><g transform="translate(1583.3924952599764 1300.8597005208335) rotate(0 66.75700124104821 14.608948601768589)"><text x="0" y="20.475902360238855" font-family="Virgil, Segoe UI Emoji" font-size="23.37431776282974px" fill="#ffffff" text-anchor="start" style="white-space: pre;" direction="ltr" dominant-baseline="alphabetic">view on map</text></g><g stroke-linecap="round" transform="translate(1564.639240051643 1349.8668619791679) rotate(0 32.75227864583337 17.5)"><path d="M8.75 0 C28.69 -0.98, 45.66 0.36, 56.75 0 M8.75 0 C23.69 0.48, 40.17 0.85, 56.75 0 M56.75 0 C62.92 0.07, 63.73 3.38, 65.5 8.75 M56.75 0 C60.49 -1.29, 65.08 4.34, 65.5 8.75 M65.5 8.75 C67.22 16.23, 67.25 22.2, 65.5 26.25 M65.5 8.75 C64.74 14.82, 66.32 22.11, 65.5 26.25 M65.5 26.25 C65.55 33.63, 61.17 36.84, 56.75 35 M65.5 26.25 C65.49 34.07, 62.36 33.68, 56.75 35 M56.75 35 C44.36 33.48, 32.38 34.76, 8.75 35 M56.75 35 C44.63 35.26, 30.9 34.74, 8.75 35 M8.75 35 C1.98 36.74, -1.38 31.52, 0 26.25 M8.75 35 C1.07 36.96, 1.3 32.98, 0 26.25 M0 26.25 C0.73 21.72, -1.12 14.62, 0 8.75 M0 26.25 C0.1 22.86, -0.71 18.39, 0 8.75 M0 8.75 C-1.79 1.95, 3.77 -0.73, 8.75 0 M0 8.75 C-0.05 3, 3.6 -0.94, 8.75 0" stroke="#be4bdb" stroke-width="1" fill="none"></path></g><g transform="translate(1578.39154158566 1354.8668619791679) rotate(0 18.999977111816406 12.5)"><text x="18.999977111816406" y="17.52" font-family="Virgil, Segoe UI Emoji" font-size="20px" fill="#be4bdb" text-anchor="middle" style="white-space: pre;" direction="ltr" dominant-baseline="alphabetic">edit</text></g><g stroke-linecap="round" transform="translate(1647.7137843224764 1350.3388671875014) rotate(0 42.86295572916663 17.5)"><path d="M8.75 0 C24.81 1.8, 39.72 -1.2, 76.98 0 M8.75 0 C32.37 -0.51, 54.78 -0.31, 76.98 0 M76.98 0 C80.98 -1.12, 85.36 4.16, 85.73 8.75 M76.98 0 C84.9 1.34, 85.53 5.03, 85.73 8.75 M85.73 8.75 C86.96 14.88, 85.03 18.95, 85.73 26.25 M85.73 8.75 C85.9 14.18, 85.26 19.06, 85.73 26.25 M85.73 26.25 C85.71 33.81, 82.61 33.86, 76.98 35 M85.73 26.25 C84.24 31.16, 81.22 33.75, 76.98 35 M76.98 35 C59.87 35.89, 44.29 36.29, 8.75 35 M76.98 35 C54.51 35.67, 32.3 34.52, 8.75 35 M8.75 35 C1.31 36.7, 1.13 32.86, 0 26.25 M8.75 35 C3.02 37.17, -0.99 33.26, 0 26.25 M0 26.25 C-0.93 21.57, 0.51 14.63, 0 8.75 M0 26.25 C-0.67 18.91, 0.49 12.1, 0 8.75 M0 8.75 C-0.05 2.99, 3.51 -0.82, 8.75 0 M0 8.75 C-0.29 2.81, 1.03 1.15, 8.75 0" stroke="#be4bdb" stroke-width="1" fill="none"></path></g><g transform="translate(1660.1967733158033 1355.3388671875014) rotate(0 30.3799667358399 12.5)"><text x="30.379966735839844" y="17.52" font-family="Virgil, Segoe UI Emoji" font-size="20px" fill="#be4bdb" text-anchor="middle" style="white-space: pre;" direction="ltr" dominant-baseline="alphabetic">delete</text></g><g transform="translate(1258.4914322998845 665.7756696428584) rotate(0 132.64807940891848 23.92299107142867)"><text x="0" y="33.53046428571437" font-family="Virgil, Segoe UI Emoji" font-size="38.276785714285815px" fill="#868e96" text-anchor="start" style="white-space: pre;" direction="ltr" dominant-baseline="alphabetic">Authenticated</text></g><g stroke-linecap="round"><g transform="translate(1391.8805424133302 369.64207981771904) rotate(0 427.57568359375 235.578125)"><path d="M0.88 -0.37 C143.36 77.89, 712.46 391.87, 854.94 470.33 M-0.12 -1.6 C142.18 76.72, 711.31 392.62, 853.88 471.44" stroke="#868e96" stroke-width="1" fill="none"></path></g><g transform="translate(1391.8805424133302 369.64207981771904) rotate(0 427.57568359375 235.578125)"><path d="M829.19 467.53 C836.1 468.18, 842.85 470.74, 853.88 471.44 M829.19 467.53 C834.13 468.59, 840.16 468.78, 853.88 471.44" stroke="#868e96" stroke-width="1" fill="none"></path></g><g transform="translate(1391.8805424133302 369.64207981771904) rotate(0 427.57568359375 235.578125)"><path d="M837.47 452.57 C841.97 457.83, 846.19 464.94, 853.88 471.44 M837.47 452.57 C840.32 457.2, 844.39 460.94, 853.88 471.44" stroke="#868e96" stroke-width="1" fill="none"></path></g></g><mask></mask><g transform="translate(1986.7682703300184 651.8652343750013) rotate(0 172.5822511866172 22.496191219721368)"><text x="0" y="31.53066161356147" font-family="Virgil, Segoe UI Emoji" font-size="35.99390595155419px" fill="#868e96" text-anchor="start" style="white-space: pre;" direction="ltr" dominant-baseline="alphabetic">Not Authenticated</text></g><g stroke-linecap="round" transform="translate(2006.2201860641349 881.552734375001) rotate(0 435.181640625 292.7265625)"><path d="M32 0 C240.72 1.36, 450.35 1.36, 838.36 0 M32 0 C255.52 1.51, 479.19 0.99, 838.36 0 M838.36 0 C861.54 -1.87, 868.48 9.08, 870.36 32 M838.36 0 C861.68 2.21, 871.41 8.7, 870.36 32 M870.36 32 C872.9 154.23, 871.75 276.62, 870.36 553.45 M870.36 32 C868.7 210.24, 869.04 387.83, 870.36 553.45 M870.36 553.45 C871.77 574.62, 858.15 584.17, 838.36 585.45 M870.36 553.45 C871.8 572.81, 858.68 584.21, 838.36 585.45 M838.36 585.45 C535.65 582.11, 232.64 582.03, 32 585.45 M838.36 585.45 C556.27 585.86, 273.79 586.13, 32 585.45 M32 585.45 C9.1 585.14, 1.17 573.42, 0 553.45 M32 585.45 C10.21 585.62, -0.87 572.72, 0 553.45 M0 553.45 C-0.98 419.15, -0.83 284.7, 0 32 M0 553.45 C-1.23 428.12, -1.09 301.77, 0 32 M0 32 C0.61 9.41, 11.3 1.85, 32 0 M0 32 C0.21 12.32, 10.81 -0.04, 32 0" stroke="#1e1e1e" stroke-width="1" fill="none"></path></g><g stroke-linecap="round"><g transform="translate(2006.8334673141349 990.806640625001) rotate(0 434.419921875 0.1171875)"><path d="M-1.08 -0.19 C143.68 -0.07, 722.66 -0.03, 867.76 -0.04 M0.56 -1.34 C145.74 -0.97, 725.15 1, 869.9 1.36" stroke="#1e1e1e" stroke-width="1" fill="none"></path></g></g><mask></mask><g transform="translate(2052.974092314135 909.659267857529) rotate(0 77.92011260986328 22.64595200873589)"><text x="0" y="31.740566335444292" font-family="Virgil, Segoe UI Emoji" font-size="36.233523213977506px" fill="#9c36b5" text-anchor="start" style="white-space: pre;" direction="ltr" dominant-baseline="alphabetic">App title</text></g><g stroke-linecap="round" transform="translate(2483.497529814135 917.908203125001) rotate(0 65.447265625 17.5)"><path d="M8.75 0 C31.73 -1.34, 57.23 -1.34, 122.14 0 M8.75 0 C31.84 0.27, 57.67 2.02, 122.14 0 M122.14 0 C128.89 -1.71, 129.58 4.77, 130.89 8.75 M122.14 0 C129.01 1.75, 131.38 1.33, 130.89 8.75 M130.89 8.75 C130.94 14.27, 132.7 22.09, 130.89 26.25 M130.89 8.75 C130.34 14.06, 131.56 19.74, 130.89 26.25 M130.89 26.25 C130.01 31, 129.5 33.31, 122.14 35 M130.89 26.25 C128.77 33.61, 126.92 37.22, 122.14 35 M122.14 35 C94.71 35.99, 66.84 34.62, 8.75 35 M122.14 35 C80.74 34.14, 37.97 34.9, 8.75 35 M8.75 35 C2.16 33.21, -0.85 32.82, 0 26.25 M8.75 35 C2.89 34.39, 0.13 31.89, 0 26.25 M0 26.25 C-0.88 22.25, 1.62 17.78, 0 8.75 M0 26.25 C0.22 23.25, 0.03 19.25, 0 8.75 M0 8.75 C0.12 2.88, 3.12 -1.53, 8.75 0 M0 8.75 C-0.97 1.08, 1.6 -0.51, 8.75 0" stroke="#2f9e44" stroke-width="1" fill="none"></path></g><g transform="translate(2521.174821684252 922.908203125001) rotate(0 27.769973754882812 12.5)"><text x="27.769973754882812" y="17.52" font-family="Virgil, Segoe UI Emoji" font-size="20px" fill="#2f9e44" text-anchor="middle" style="white-space: pre;" direction="ltr" dominant-baseline="alphabetic">Users</text></g><g stroke-linecap="round" transform="translate(2304.435029814135 921.564453125001) rotate(0 74.255859375 17.5)"><path d="M8.75 0 C41.58 2.32, 76.07 -1.41, 139.76 0 M8.75 0 C38.11 -2.11, 65.91 -0.33, 139.76 0 M139.76 0 C146.49 1.52, 148.93 1.54, 148.51 8.75 M139.76 0 C147.03 0.94, 146.89 2.88, 148.51 8.75 M148.51 8.75 C149.3 14.41, 148.54 16.26, 148.51 26.25 M148.51 8.75 C148.24 12.4, 149.29 16.26, 148.51 26.25 M148.51 26.25 C146.66 33.41, 144.68 36.93, 139.76 35 M148.51 26.25 C147.23 33.23, 146.44 35.28, 139.76 35 M139.76 35 C98.1 32.91, 53.32 35.65, 8.75 35 M139.76 35 C109.04 34.2, 78.65 35.46, 8.75 35 M8.75 35 C2.89 34.47, 0.11 31.91, 0 26.25 M8.75 35 C2.73 33.64, 1.64 30.79, 0 26.25 M0 26.25 C-1.59 20.43, -1.25 14.09, 0 8.75 M0 26.25 C0.04 19.37, 0.07 11.85, 0 8.75 M0 8.75 C-0.84 1.32, 1.77 -0.45, 8.75 0 M0 8.75 C0.45 5.1, 3.2 -0.6, 8.75 0" stroke="#9c36b5" stroke-width="1" fill="none"></path></g><g transform="translate(2318.0409258102286 926.564453125001) rotate(0 60.64996337890625 12.5)"><text x="60.64996337890625" y="17.52" font-family="Virgil, Segoe UI Emoji" font-size="20px" fill="#9c36b5" text-anchor="middle" style="white-space: pre;" direction="ltr" dominant-baseline="alphabetic">+ New Place</text></g><g transform="translate(2087.241670439135 1044.4029947916683) rotate(0 95.78372955322266 13.79431337332312)"><text x="0" y="19.33410962404968" font-family="Virgil, Segoe UI Emoji" font-size="22.070901397316987px" fill="#9c36b5" text-anchor="start" style="white-space: pre;" direction="ltr" dominant-baseline="alphabetic">User 2's Places: </text></g><g stroke-linecap="round" transform="translate(2100.0123177605633 1111.4612165178592) rotate(0 111.14908854166674 121.8836030505953)"><path d="M32 0 C66.52 -0.45, 95.48 -2.68, 190.3 0 M32 0 C94.38 -1.89, 156.95 -0.79, 190.3 0 M190.3 0 C210.22 -0.03, 221.36 12.64, 222.3 32 M190.3 0 C212.51 0.81, 223.91 10.47, 222.3 32 M222.3 32 C219.42 71.14, 220.06 113.56, 222.3 211.77 M222.3 32 C220.18 71.68, 220.08 109.92, 222.3 211.77 M222.3 211.77 C223.03 233.34, 212.21 243.83, 190.3 243.77 M222.3 211.77 C221.39 234.72, 209.83 243.41, 190.3 243.77 M190.3 243.77 C133.66 242.7, 74.94 242.6, 32 243.77 M190.3 243.77 C137.06 243.26, 83.63 242.75, 32 243.77 M32 243.77 C12.09 242.64, 1.26 234.84, 0 211.77 M32 243.77 C12.96 241.88, 0.7 231.66, 0 211.77 M0 211.77 C-0.23 152.26, -1.69 92.72, 0 32 M0 211.77 C0.18 171.4, 0.95 132.44, 0 32 M0 32 C0.24 10.15, 9.05 -1.72, 32 0 M0 32 C-1.82 8.47, 10.29 -1.84, 32 0" stroke="#9c36b5" stroke-width="1" fill="none"></path></g><g stroke-linecap="round"><g transform="translate(2099.9304725224683 1230.4055989583348) rotate(0 111.82942708333326 -1.1653645833333712)"><path d="M0.55 -1.03 C37.52 -1.42, 185.59 -1.15, 222.87 -1.22 M-0.62 1.05 C36.64 0.85, 187.77 -2.03, 225.16 -2.76" stroke="#9c36b5" stroke-width="1" fill="none"></path></g></g><mask></mask><g transform="translate(2151.4929725224683 1245.9654947916683) rotate(0 54.87840270996094 14.005318928544398)"><text x="0" y="19.629855010247823" font-family="Virgil, Segoe UI Emoji" font-size="22.40851028567103px" fill="#9c36b5" text-anchor="start" style="white-space: pre;" direction="ltr" dominant-baseline="alphabetic">Location 1</text></g><g stroke-linecap="round" transform="translate(2172.651826689135 1139.7089843750018) rotate(0 34.04947916666663 32.59114583333337)"><path d="M43.75 8.25 C49.07 12.47, 49.83 17.15, 59.35 24.75 M43.75 8.25 C48.49 14.87, 54.65 19.86, 59.35 24.75 M59.35 24.75 C69.5 32.83, 66.55 31.71, 59.35 41.25 M59.35 24.75 C69.53 31.03, 67.09 31.76, 59.35 41.25 M59.35 41.25 C54.68 46.09, 49.41 51.78, 43.75 56.93 M59.35 41.25 C54.23 46.79, 48.09 52.95, 43.75 56.93 M43.75 56.93 C33.43 64.87, 36.17 63.81, 26.25 56.93 M43.75 56.93 C34.54 65.35, 34.13 63.12, 26.25 56.93 M26.25 56.93 C21.15 53, 17.01 48.69, 8.75 41.25 M26.25 56.93 C22.55 53.92, 18.7 48.45, 8.75 41.25 M8.75 41.25 C0.61 31.74, 0.63 34.85, 8.75 24.75 M8.75 41.25 C0.21 34.65, 0.14 32.96, 8.75 24.75 M8.75 24.75 C12.7 18.56, 19.29 14.98, 26.25 8.25 M8.75 24.75 C14.84 17.42, 21.77 10.8, 26.25 8.25 M26.25 8.25 C34.67 -1.6, 36.36 0.28, 43.75 8.25 M26.25 8.25 C33.5 0.25, 33.86 0.03, 43.75 8.25" stroke="#9c36b5" stroke-width="1" fill="none"></path></g><g stroke-linecap="round" transform="translate(2122.547660022468 1291.691406250001) rotate(0 86.7919921875 18.767903645833258)"><path d="M9.38 0 C49.57 0.28, 92.36 4.01, 164.2 0 C172.4 0.69, 173.94 1.52, 173.58 9.38 C175.84 14.62, 170.93 19.57, 173.58 28.15 C171.72 35.91, 172.68 36.08, 164.2 37.54 C101.74 34.2, 43.11 33.85, 9.38 37.54 C4.34 34.4, -0.18 33.24, 0 28.15 C-0.08 23.34, -3.05 18.28, 0 9.38 C0.46 -0.28, 0.91 -2.25, 9.38 0" stroke="none" stroke-width="0" fill="#9c36b5"></path><path d="M9.38 0 C61.39 0.92, 116.98 -1.74, 164.2 0 M9.38 0 C55.96 -1.18, 102.48 -1.62, 164.2 0 M164.2 0 C168.91 -1.29, 174.83 1.41, 173.58 9.38 M164.2 0 C169.44 -1.24, 175.33 1.18, 173.58 9.38 M173.58 9.38 C175.52 12.23, 174.65 17.87, 173.58 28.15 M173.58 9.38 C173.27 15.9, 172.9 20.96, 173.58 28.15 M173.58 28.15 C174.76 33.04, 170.06 37.68, 164.2 37.54 M173.58 28.15 C172.72 32.34, 169.48 38.38, 164.2 37.54 M164.2 37.54 C117.8 37.46, 70.55 39.05, 9.38 37.54 M164.2 37.54 C127.48 38.06, 89.09 38.25, 9.38 37.54 M9.38 37.54 C3.76 39.38, 0.18 35.84, 0 28.15 M9.38 37.54 C3.27 37.5, 0.23 32.64, 0 28.15 M0 28.15 C-0.27 23.67, 1.93 18.7, 0 9.38 M0 28.15 C-0.59 22.11, 0 17.12, 0 9.38 M0 9.38 C1.36 3.41, 1.83 0.22, 9.38 0 M0 9.38 C-1.14 3.16, 5.26 0.82, 9.38 0" stroke="#9c36b5" stroke-width="1" fill="none"></path></g><g transform="translate(2147.6192746058014 1298.947265625001) rotate(0 66.75700124104821 14.608948601768589)"><text x="0" y="20.475902360238855" font-family="Virgil, Segoe UI Emoji" font-size="23.37431776282974px" fill="#ffffff" text-anchor="start" style="white-space: pre;" direction="ltr" dominant-baseline="alphabetic">view on map</text></g><g stroke-linecap="round" transform="translate(2474.977740839703 1105.9397786458303) rotate(0 111.14908854166674 125.08393787202363)"><path d="M32 0 C89.3 2.47, 147.46 0.34, 190.3 0 M32 0 C70.01 2, 109.41 2.3, 190.3 0 M190.3 0 C210.51 1, 223.03 10.91, 222.3 32 M190.3 0 C212.29 0.07, 221.39 12.28, 222.3 32 M222.3 32 C220.64 72.86, 222.15 113.77, 222.3 218.17 M222.3 32 C221.5 70.88, 221.56 110.2, 222.3 218.17 M222.3 218.17 C222.14 238.32, 213.06 249.04, 190.3 250.17 M222.3 218.17 C223.75 241.5, 213.92 248.28, 190.3 250.17 M190.3 250.17 C139.81 250.85, 87.07 250.79, 32 250.17 M190.3 250.17 C142.66 248.15, 95.28 248.73, 32 250.17 M32 250.17 C11.06 252.07, 0.24 238.98, 0 218.17 M32 250.17 C8.81 248.19, -1.82 237.3, 0 218.17 M0 218.17 C1.77 164.06, 1.7 111.56, 0 32 M0 218.17 C-2.13 162.26, -1.99 105.97, 0 32 M0 32 C-0.25 12.03, 12.49 1.08, 32 0 M0 32 C0.44 10.9, 9.64 -2.01, 32 0" stroke="#9c36b5" stroke-width="1" fill="none"></path></g><g stroke-linecap="round"><g transform="translate(2476.0845116730366 1225.2301432291633) rotate(0 111.82942708333326 -1.1653645833333712)"><path d="M0.75 -1.03 C38.09 -1.4, 185.83 -2.59, 223.13 -2.98 M-0.32 1.04 C36.9 0.89, 184.47 -1.18, 221.9 -1.78" stroke="#9c36b5" stroke-width="1" fill="none"></path></g></g><mask></mask><g transform="translate(2527.6470116730366 1240.7900390624973) rotate(0 59.79676818847656 14.005318928544398)"><text x="0" y="19.629855010247823" font-family="Virgil, Segoe UI Emoji" font-size="22.40851028567103px" fill="#9c36b5" text-anchor="start" style="white-space: pre;" direction="ltr" dominant-baseline="alphabetic">Location 2</text></g><g stroke-linecap="round" transform="translate(2548.805865839703 1134.5335286458303) rotate(0 34.04947916666663 32.59114583333337)"><path d="M43.75 8.25 C45.96 10.51, 52.97 15.66, 59.35 24.75 M43.75 8.25 C50.21 14.84, 56.31 21.28, 59.35 24.75 M59.35 24.75 C67.31 34.41, 66.53 32.69, 59.35 41.25 M59.35 24.75 C69.45 31.43, 67.64 33.17, 59.35 41.25 M59.35 41.25 C55.85 45.27, 50.49 49.52, 43.75 56.93 M59.35 41.25 C55.5 45.17, 50.87 51.17, 43.75 56.93 M43.75 56.93 C36.99 63.54, 35.61 63.93, 26.25 56.93 M43.75 56.93 C35.73 67.31, 35.21 66.83, 26.25 56.93 M26.25 56.93 C19.36 51.31, 13.94 46.2, 8.75 41.25 M26.25 56.93 C21.48 52.48, 15.69 47.53, 8.75 41.25 M8.75 41.25 C-1.58 31.09, -0.33 31.4, 8.75 24.75 M8.75 41.25 C1.57 33.32, -1.5 33.25, 8.75 24.75 M8.75 24.75 C13.84 19.66, 17.86 15.81, 26.25 8.25 M8.75 24.75 C14.9 20.25, 19.39 14.9, 26.25 8.25 M26.25 8.25 C34.11 -1.75, 33.78 -0.91, 43.75 8.25 M26.25 8.25 C36.68 0.85, 33.33 1.5, 43.75 8.25" stroke="#9c36b5" stroke-width="1" fill="none"></path></g><g stroke-linecap="round" transform="translate(2498.701699173036 1286.5159505208294) rotate(0 86.7919921875 18.767903645833258)"><path d="M9.38 0 C68.88 -5.3, 118.11 -3.29, 164.2 0 C167.67 -1.36, 174.8 -0.01, 173.58 9.38 C173.33 12.96, 173.38 19.65, 173.58 28.15 C170.31 32.42, 170.91 34.13, 164.2 37.54 C128.6 38.33, 90.65 37.17, 9.38 37.54 C1.64 40.03, -0.16 36.08, 0 28.15 C-1.05 24.07, 0.5 21.93, 0 9.38 C-2.73 1.66, 2.56 -1.05, 9.38 0" stroke="none" stroke-width="0" fill="#9c36b5"></path><path d="M9.38 0 C68.93 0.51, 127.76 0.31, 164.2 0 M9.38 0 C63.85 -0.16, 117.35 0.51, 164.2 0 M164.2 0 C168.89 -0.31, 174.76 1.76, 173.58 9.38 M164.2 0 C169.99 0.17, 172.72 1.06, 173.58 9.38 M173.58 9.38 C173.15 14.32, 173.49 18.9, 173.58 28.15 M173.58 9.38 C174.31 14.72, 174.65 17.66, 173.58 28.15 M173.58 28.15 C174.2 33.15, 171.09 39.38, 164.2 37.54 M173.58 28.15 C173.79 36.06, 170.6 37.5, 164.2 37.54 M164.2 37.54 C114.59 35.74, 67.73 37.27, 9.38 37.54 M164.2 37.54 C102.24 36.27, 41.09 36.18, 9.38 37.54 M9.38 37.54 C2.8 35.94, 1.36 34.69, 0 28.15 M9.38 37.54 C1.63 37.78, -1.14 34.44, 0 28.15 M0 28.15 C0.27 20.29, -0.1 13.17, 0 9.38 M0 28.15 C0.01 21.34, -0.59 13.52, 0 9.38 M0 9.38 C-1.22 2.21, 4.59 0.74, 9.38 0 M0 9.38 C-1.67 4.63, 1.94 0.96, 9.38 0" stroke="#9c36b5" stroke-width="1" fill="none"></path></g><g transform="translate(2523.7733137563696 1293.7718098958294) rotate(0 66.75700124104821 14.608948601768589)"><text x="0" y="20.475902360238855" font-family="Virgil, Segoe UI Emoji" font-size="23.37431776282974px" fill="#ffffff" text-anchor="start" style="white-space: pre;" direction="ltr" dominant-baseline="alphabetic">view on map</text></g><g stroke-linecap="round" transform="translate(2647.9096800677416 918.9667968750013) rotate(0 85.451171875 17.5)"><path d="M8.75 0 C56.72 -2.67, 104.15 -1.09, 162.15 0 M8.75 0 C53.37 0.48, 98.5 0.18, 162.15 0 M162.15 0 C167.89 1.91, 171.55 4.24, 170.9 8.75 M162.15 0 C167.4 1.28, 171.38 4.64, 170.9 8.75 M170.9 8.75 C169.6 12, 169.62 17.25, 170.9 26.25 M170.9 8.75 C170.23 15.91, 170.73 21.67, 170.9 26.25 M170.9 26.25 C172.21 30.95, 168.72 34.36, 162.15 35 M170.9 26.25 C169.08 31.39, 167.47 34.77, 162.15 35 M162.15 35 C103.69 34.47, 40.87 33.17, 8.75 35 M162.15 35 C117.5 33.6, 72.92 34.25, 8.75 35 M8.75 35 C4.73 34.74, -1.08 32.59, 0 26.25 M8.75 35 C2.16 36.17, 0.7 33.88, 0 26.25 M0 26.25 C-0.08 24.01, -0.49 19.73, 0 8.75 M0 26.25 C-0.37 22.5, 0.89 19.12, 0 8.75 M0 8.75 C-0.37 1.88, 2.12 0.71, 8.75 0 M0 8.75 C-1.8 1.84, 0.97 0.76, 8.75 0" stroke="#868e96" stroke-width="1" fill="none"></path></g><g transform="translate(2654.6609160296557 923.9667968750013) rotate(0 78.69993591308594 12.5)"><text x="78.69993591308594" y="17.52" font-family="Virgil, Segoe UI Emoji" font-size="20px" fill="#868e96" text-anchor="middle" style="white-space: pre;" direction="ltr" dominant-baseline="alphabetic">Login / Register</text></g><g stroke-linecap="round"><g transform="translate(1859.4471644990326 68.7875054861139) rotate(0 73.08070591517856 1.7583705357143344)"><path d="M0.62 1.1 C25.14 1.9, 122.56 3.52, 146.97 3.93 M-0.51 0.63 C23.94 1.14, 121.9 1.31, 146.44 2.02" stroke="#868e96" stroke-width="1" fill="none"></path></g><g transform="translate(1859.4471644990326 68.7875054861139) rotate(0 73.08070591517856 1.7583705357143344)"><path d="M122.83 10.25 C131.47 9.12, 137.06 6.87, 146.44 2.02 M122.83 10.25 C130.7 7, 137.3 4.78, 146.44 2.02" stroke="#868e96" stroke-width="1" fill="none"></path></g><g transform="translate(1859.4471644990326 68.7875054861139) rotate(0 73.08070591517856 1.7583705357143344)"><path d="M123.07 -6.85 C131.51 -3.1, 137.03 -0.46, 146.44 2.02 M123.07 -6.85 C130.78 -4.92, 137.31 -1.96, 146.44 2.02" stroke="#868e96" stroke-width="1" fill="none"></path></g></g><mask></mask><g stroke-linecap="round" transform="translate(2042.0938318534568 10) rotate(0 435.181640625 292.7265625)"><path d="M32 0 C349.13 -1.63, 667.65 -1.63, 838.36 0 M32 0 C283.85 -2.94, 535.36 -3.28, 838.36 0 M838.36 0 C861.53 -0.27, 868.79 11.02, 870.36 32 M838.36 0 C858.1 -1.63, 870.97 8.73, 870.36 32 M870.36 32 C869.94 181.54, 870.65 331.13, 870.36 553.45 M870.36 32 C869.26 195.2, 869.61 358.71, 870.36 553.45 M870.36 553.45 C871.52 574.83, 859.54 584.54, 838.36 585.45 M870.36 553.45 C872.64 574.54, 859.37 587.65, 838.36 585.45 M838.36 585.45 C599.8 586.58, 362.21 585.83, 32 585.45 M838.36 585.45 C614.81 583.77, 391.77 583.75, 32 585.45 M32 585.45 C12.35 586.03, -0.31 576.65, 0 553.45 M32 585.45 C8.59 587.35, -1.84 572.98, 0 553.45 M0 553.45 C0.55 354.16, -0.53 154.67, 0 32 M0 553.45 C0.92 424.47, 1.69 295.98, 0 32 M0 32 C0.04 11.65, 9.82 -0.9, 32 0 M0 32 C-0.77 11.78, 12.94 -1.5, 32 0" stroke="#1e1e1e" stroke-width="1" fill="none"></path></g><g stroke-linecap="round"><g transform="translate(2042.7071131034568 119.25390625) rotate(0 434.419921875 0.1171875)"><path d="M0.51 -0.01 C145.28 0.23, 724.45 0.15, 869.35 0.38 M-0.68 -1.06 C143.91 -0.51, 723.6 1.88, 868.66 1.99" stroke="#1e1e1e" stroke-width="1" fill="none"></path></g></g><mask></mask><g transform="translate(2088.847738103457 38.10653348252811) rotate(0 77.92011260986328 22.645952008735946)"><text x="0" y="31.740566335444292" font-family="Virgil, Segoe UI Emoji" font-size="36.233523213977506px" fill="#9c36b5" text-anchor="start" style="white-space: pre;" direction="ltr" dominant-baseline="alphabetic">App title</text></g><g stroke-linecap="round" transform="translate(2519.371175603457 46.35546875) rotate(0 65.447265625 17.5)"><path d="M8.75 0 C41.74 -0.61, 72.38 -1.15, 122.14 0 M8.75 0 C43.65 -0.94, 77.32 -1.42, 122.14 0 M122.14 0 C129.96 -0.21, 130.61 4.82, 130.89 8.75 M122.14 0 C127.87 2.2, 131.24 1.56, 130.89 8.75 M130.89 8.75 C130.5 16.99, 130.12 20.53, 130.89 26.25 M130.89 8.75 C131.54 13.24, 130.67 18.04, 130.89 26.25 M130.89 26.25 C129.09 33.73, 126.38 33.43, 122.14 35 M130.89 26.25 C132.78 32.11, 129.69 36.65, 122.14 35 M122.14 35 C87.65 33.35, 57.15 32.68, 8.75 35 M122.14 35 C99.18 34.69, 75.76 33.75, 8.75 35 M8.75 35 C2.24 35.97, 1.98 30.78, 0 26.25 M8.75 35 C0.64 33.07, -0.03 34.05, 0 26.25 M0 26.25 C1.33 24.05, 1.45 20.21, 0 8.75 M0 26.25 C0.81 19.8, -0.64 14.01, 0 8.75 M0 8.75 C-1.58 2.98, 1.82 -1.1, 8.75 0 M0 8.75 C-0.82 1.21, 0.82 -1.72, 8.75 0" stroke="#2f9e44" stroke-width="1" fill="none"></path></g><g transform="translate(2557.048467473574 51.35546875) rotate(0 27.769973754882812 12.5)"><text x="27.769973754882812" y="17.52" font-family="Virgil, Segoe UI Emoji" font-size="20px" fill="#2f9e44" text-anchor="middle" style="white-space: pre;" direction="ltr" dominant-baseline="alphabetic">Users</text></g><g stroke-linecap="round" transform="translate(2340.308675603457 50.01171875) rotate(0 74.255859375 17.5)"><path d="M8.75 0 C42.85 1.31, 78.54 2.04, 139.76 0 M8.75 0 C49.33 0.49, 87.78 1.55, 139.76 0 M139.76 0 C145.5 1.91, 148.81 1.74, 148.51 8.75 M139.76 0 C147.47 0.11, 148.23 2.38, 148.51 8.75 M148.51 8.75 C147.42 14.67, 147.32 23.86, 148.51 26.25 M148.51 8.75 C147.69 15.23, 147.78 19.57, 148.51 26.25 M148.51 26.25 C150.15 32.11, 147.09 36.43, 139.76 35 M148.51 26.25 C148.39 30.62, 144.79 33.77, 139.76 35 M139.76 35 C106.68 35.69, 76.07 33.78, 8.75 35 M139.76 35 C93.68 34.89, 49.27 33.76, 8.75 35 M8.75 35 C0.93 33.32, -0.02 33.8, 0 26.25 M8.75 35 C0.76 35.48, 0.72 33.88, 0 26.25 M0 26.25 C0.47 18.15, -0.45 14.26, 0 8.75 M0 26.25 C-0.54 22.19, -0.32 17.59, 0 8.75 M0 8.75 C-0.71 1.44, 1.09 -1.49, 8.75 0 M0 8.75 C1.49 3.81, 4.81 -0.67, 8.75 0" stroke="#9c36b5" stroke-width="1" fill="none"></path></g><g transform="translate(2353.9145715995505 55.01171875) rotate(0 60.64996337890625 12.5)"><text x="60.64996337890625" y="17.52" font-family="Virgil, Segoe UI Emoji" font-size="20px" fill="#9c36b5" text-anchor="middle" style="white-space: pre;" direction="ltr" dominant-baseline="alphabetic">+ New Place</text></g><g stroke-linecap="round" transform="translate(2279.909401049885 217.1294642857144) rotate(0 167.92689732142856 25.54129464285714)"><path d="M12.77 0 C91.06 0.36, 168.84 -0.79, 323.08 0 M12.77 0 C77.57 0.79, 142.68 0.64, 323.08 0 M323.08 0 C333.51 1.98, 334.8 3.26, 335.85 12.77 M323.08 0 C330.91 1.49, 335.93 5.82, 335.85 12.77 M335.85 12.77 C337.85 21.73, 337.96 28, 335.85 38.31 M335.85 12.77 C335.28 19.33, 336.85 25.49, 335.85 38.31 M335.85 38.31 C337.7 45.49, 333.32 52.52, 323.08 51.08 M335.85 38.31 C335.78 46.33, 329.43 51.7, 323.08 51.08 M323.08 51.08 C211.94 52.78, 100.28 52.3, 12.77 51.08 M323.08 51.08 C200.29 50.48, 76.48 50.45, 12.77 51.08 M12.77 51.08 C4.87 50.46, 0.08 48.73, 0 38.31 M12.77 51.08 C6.08 52.27, -1.49 44.65, 0 38.31 M0 38.31 C-1.44 27.68, 1.7 17.77, 0 12.77 M0 38.31 C-0.86 27.72, -0.6 18.71, 0 12.77 M0 12.77 C0.85 2.6, 5.33 -0.49, 12.77 0 M0 12.77 C-2.07 5.77, 5.24 2.09, 12.77 0" stroke="#868e96" stroke-width="1" fill="none"></path></g><g transform="translate(2336.840204621314 227.83258928571445) rotate(0 33.39784240722656 17.929665997895256)"><text x="0" y="25.13021986264998" font-family="Virgil, Segoe UI Emoji" font-size="28.687465596632396px" fill="#868e96" text-anchor="start" style="white-space: pre;" direction="ltr" dominant-baseline="alphabetic">email</text></g><g stroke-linecap="round" transform="translate(2284.4609540643755 293.97098214285734) rotate(0 166.3859469855098 25.306919642857167)"><path d="M12.65 0 C106.35 -2.34, 198.87 -0.85, 320.12 0 M12.65 0 C115.03 -1.77, 216.13 -1.24, 320.12 0 M320.12 0 C330.27 0.34, 333.63 5.88, 332.77 12.65 M320.12 0 C329.32 -1.02, 332.15 3.92, 332.77 12.65 M332.77 12.65 C333.48 18.64, 334.45 26.45, 332.77 37.96 M332.77 12.65 C332.12 19.81, 332.52 26.38, 332.77 37.96 M332.77 37.96 C331.08 47.01, 329.97 49.36, 320.12 50.61 M332.77 37.96 C332.27 46.22, 330.02 52.85, 320.12 50.61 M320.12 50.61 C242.99 50.33, 169.64 48.83, 12.65 50.61 M320.12 50.61 C217.19 50.61, 115.9 50.75, 12.65 50.61 M12.65 50.61 C2.91 50.92, 1.54 46.53, 0 37.96 M12.65 50.61 C5.01 52.84, 2.06 48.49, 0 37.96 M0 37.96 C0.15 30.88, -1.2 26.99, 0 12.65 M0 37.96 C1.03 30.08, 0.16 21.86, 0 12.65 M0 12.65 C-1.31 5.44, 3.39 1.2, 12.65 0 M0 12.65 C-0.28 4.99, 2.01 1.12, 12.65 0" stroke="#868e96" stroke-width="1" fill="none"></path></g><g transform="translate(2340.8693425713514 304.5758918817695) rotate(0 62.63764953613281 17.76513771038998)"><text x="0" y="24.8996170148826" font-family="Virgil, Segoe UI Emoji" font-size="28.42422033662397px" fill="#868e96" text-anchor="start" style="white-space: pre;" direction="ltr" dominant-baseline="alphabetic">password</text></g><g stroke-linecap="round" transform="translate(2300.9091220320283 390.5892857142859) rotate(0 155.3005022321429 20.934709821428555)"><path d="M10.47 0 C109.11 -3.85, 206.59 -2.27, 300.13 0 C310.3 -2.41, 310.18 6.86, 310.6 10.47 C309.5 17.13, 312.74 22.82, 310.6 31.4 C307.98 38.26, 305.29 41.33, 300.13 41.87 C230.88 42.44, 164.52 40.88, 10.47 41.87 C3.19 40.41, 3.04 41.73, 0 31.4 C2.68 27.99, -1.77 17.02, 0 10.47 C-0.66 5.52, 1.71 -0.24, 10.47 0" stroke="none" stroke-width="0" fill="#e1e3e5"></path><path d="M10.47 0 C118.27 -2.48, 227.02 -0.42, 300.13 0 M10.47 0 C76.45 -2.36, 143.12 -2.69, 300.13 0 M300.13 0 C308.3 1.87, 309.98 2.91, 310.6 10.47 M300.13 0 C309.24 -0.67, 310.95 5.18, 310.6 10.47 M310.6 10.47 C309.18 16.34, 312.14 25.48, 310.6 31.4 M310.6 10.47 C310.32 15.27, 310.96 21.12, 310.6 31.4 M310.6 31.4 C310.86 36.39, 305.95 43.72, 300.13 41.87 M310.6 31.4 C309.84 37.23, 304.93 41.48, 300.13 41.87 M300.13 41.87 C236.17 41.06, 171.96 42.53, 10.47 41.87 M300.13 41.87 C190.93 41.14, 83.2 40.56, 10.47 41.87 M10.47 41.87 C4.5 42.59, -1.34 37.64, 0 31.4 M10.47 41.87 C4.56 44.17, -0.41 39.34, 0 31.4 M0 31.4 C0.35 28.19, -0.53 21.76, 0 10.47 M0 31.4 C-0.16 26.26, -0.14 20.38, 0 10.47 M0 10.47 C0.38 3.02, 4.8 1.33, 10.47 0 M0 10.47 C-2.05 4.21, 4.96 -2.12, 10.47 0" stroke="#343a40" stroke-width="1" fill="none"></path></g><g transform="translate(2377.509688351085 399.02399553571445) rotate(0 78.69993591308594 12.5)"><text x="78.69993591308594" y="17.52" font-family="Virgil, Segoe UI Emoji" font-size="20px" fill="#343a40" text-anchor="middle" style="white-space: pre;" direction="ltr" dominant-baseline="alphabetic">Login / Register</text></g><g stroke-linecap="round"><g transform="translate(1369.888354913332 948.2096021391484) rotate(0 -238.12465122767867 0.1436941964285552)"><path d="M0.48 -1 C-78.89 -0.92, -395.72 0.46, -475.08 0.83 M-0.73 1.08 C-80.25 0.79, -396.18 -0.72, -475.41 -1.01" stroke="#868e96" stroke-width="1" fill="none"></path></g><g transform="translate(1369.888354913332 948.2096021391484) rotate(0 -238.12465122767867 0.1436941964285552)"><path d="M-451.89 -9.46 C-462.77 -4.1, -469.42 -1.77, -475.41 -1.01 M-451.89 -9.46 C-461.06 -6.57, -470.23 -2.34, -475.41 -1.01" stroke="#868e96" stroke-width="1" fill="none"></path></g><g transform="translate(1369.888354913332 948.2096021391484) rotate(0 -238.12465122767867 0.1436941964285552)"><path d="M-451.96 7.65 C-462.86 6.29, -469.48 1.91, -475.41 -1.01 M-451.96 7.65 C-461.03 4.08, -470.17 1.87, -475.41 -1.01" stroke="#868e96" stroke-width="1" fill="none"></path></g></g><mask></mask><g stroke-linecap="round" transform="translate(10.652384724849867 894.2522321428561) rotate(0 435.181640625 292.7265625)"><path d="M32 0 C251.94 -0.87, 471.78 -0.33, 838.36 0 M32 0 C236.27 -1.8, 440.82 -2.04, 838.36 0 M838.36 0 C859.95 1.82, 870.85 11.86, 870.36 32 M838.36 0 C858.32 -1.28, 870.67 9.78, 870.36 32 M870.36 32 C868.88 218.64, 869.91 405.02, 870.36 553.45 M870.36 32 C871.06 219.21, 870.58 405.9, 870.36 553.45 M870.36 553.45 C870.78 575.19, 859.13 587.1, 838.36 585.45 M870.36 553.45 C871.68 576.87, 860.66 585.67, 838.36 585.45 M838.36 585.45 C531.23 586.5, 222.98 585.32, 32 585.45 M838.36 585.45 C550.15 587.56, 262.8 587.58, 32 585.45 M32 585.45 C9.66 583.86, 1.3 576.45, 0 553.45 M32 585.45 C12.76 586.15, 1.09 575.47, 0 553.45 M0 553.45 C2.33 409.02, 1.98 264.05, 0 32 M0 553.45 C-1.61 445.98, -2.02 338.43, 0 32 M0 32 C0.03 12.09, 10.94 0.39, 32 0 M0 32 C0.9 8.74, 12.9 2.07, 32 0" stroke="#1e1e1e" stroke-width="1" fill="none"></path></g><g stroke-linecap="round"><g transform="translate(11.265665974849867 1003.5061383928561) rotate(0 434.419921875 0.1171875)"><path d="M0.13 -0.78 C145.03 -0.79, 724.79 -0.63, 869.77 -0.32 M-1.27 1.42 C143.53 1.6, 724.13 1.31, 869.31 0.92" stroke="#1e1e1e" stroke-width="1" fill="none"></path></g></g><mask></mask><g transform="translate(57.40629097484987 922.3587656253841) rotate(0 77.92011260986328 22.64595200873589)"><text x="0" y="31.740566335444292" font-family="Virgil, Segoe UI Emoji" font-size="36.233523213977506px" fill="#9c36b5" text-anchor="start" style="white-space: pre;" direction="ltr" dominant-baseline="alphabetic">App title</text></g><g stroke-linecap="round" transform="translate(487.9297284748498 930.6077008928561) rotate(0 65.447265625 17.5)"><path d="M8.75 0 C52.9 -2.6, 96.21 -2.72, 122.14 0 M8.75 0 C46.97 -0.44, 84.1 -1.59, 122.14 0 M122.14 0 C128.25 -0.77, 132.03 1.83, 130.89 8.75 M122.14 0 C126.52 -1, 132.4 4.87, 130.89 8.75 M130.89 8.75 C131.85 16.7, 132.35 21.58, 130.89 26.25 M130.89 8.75 C130.68 15.09, 131.43 20.78, 130.89 26.25 M130.89 26.25 C131.73 32.27, 129.61 36.8, 122.14 35 M130.89 26.25 C131.27 33.86, 129.47 35.37, 122.14 35 M122.14 35 C98.79 33.71, 73.24 36.4, 8.75 35 M122.14 35 C86.2 34.93, 49.86 34.4, 8.75 35 M8.75 35 C3.87 35.59, -0.46 30.19, 0 26.25 M8.75 35 C3.77 36.02, -0.12 32.11, 0 26.25 M0 26.25 C1.39 23.15, 0 17.48, 0 8.75 M0 26.25 C0.12 21.86, 0.34 16.4, 0 8.75 M0 8.75 C1.94 4.72, 4.12 1.87, 8.75 0 M0 8.75 C-1.22 0.88, 3.35 -0.79, 8.75 0" stroke="#2f9e44" stroke-width="1" fill="none"></path></g><g transform="translate(525.6070203449669 935.6077008928561) rotate(0 27.769973754882812 12.5)"><text x="27.769973754882812" y="17.52" font-family="Virgil, Segoe UI Emoji" font-size="20px" fill="#2f9e44" text-anchor="middle" style="white-space: pre;" direction="ltr" dominant-baseline="alphabetic">Users</text></g><g stroke-linecap="round" transform="translate(234.37825791427326 1106.3286830357138) rotate(0 167.92689732142856 25.54129464285711)"><path d="M12.77 0 C89.51 0.32, 165.17 -1.99, 323.08 0 M12.77 0 C75.51 1.06, 137.54 1.49, 323.08 0 M323.08 0 C333.46 1.13, 337.25 3.04, 335.85 12.77 M323.08 0 C332.59 -1.97, 333.85 2.73, 335.85 12.77 M335.85 12.77 C334.4 20.46, 336.48 33.84, 335.85 38.31 M335.85 12.77 C335.21 22.62, 335.99 31.45, 335.85 38.31 M335.85 38.31 C334.8 45.32, 333.36 51.23, 323.08 51.08 M335.85 38.31 C334.05 45.47, 330.93 49.08, 323.08 51.08 M323.08 51.08 C203.93 48.87, 82.82 50.52, 12.77 51.08 M323.08 51.08 C199.91 50.14, 76.21 49.06, 12.77 51.08 M12.77 51.08 C3.27 51.85, -0.28 45.9, 0 38.31 M12.77 51.08 C4.1 52.22, 1.44 44.61, 0 38.31 M0 38.31 C-1.75 27.69, -1.37 19.36, 0 12.77 M0 38.31 C0.05 30.02, 0.68 19.95, 0 12.77 M0 12.77 C-1.53 2.28, 2.33 -1.04, 12.77 0 M0 12.77 C2.27 4.1, 2.21 -0.88, 12.77 0" stroke="#9c36b5" stroke-width="1" fill="none"></path></g><g stroke-linecap="round" transform="translate(240.76016807162057 1172.6121651785702) rotate(0 166.96072377122417 48.32310267857133)"><path d="M24.16 0 C134.34 2.22, 246.46 2.42, 309.76 0 M24.16 0 C90.19 0.66, 155.33 -0.22, 309.76 0 M309.76 0 C326.73 -1.71, 332.17 6.73, 333.92 24.16 M309.76 0 C327.58 0.69, 331.97 6.29, 333.92 24.16 M333.92 24.16 C335.17 34.33, 334.62 42.74, 333.92 72.48 M333.92 24.16 C333.45 41.58, 334.86 60.57, 333.92 72.48 M333.92 72.48 C332.35 87.41, 325.28 94.9, 309.76 96.65 M333.92 72.48 C335.93 89.97, 324.59 98.37, 309.76 96.65 M309.76 96.65 C245.19 97.53, 176.58 98.67, 24.16 96.65 M309.76 96.65 C198.99 95.55, 88.86 94.91, 24.16 96.65 M24.16 96.65 C7.92 97.64, 1.25 86.67, 0 72.48 M24.16 96.65 C9.09 94.66, 1 86.33, 0 72.48 M0 72.48 C1.6 61.22, 1.51 52.06, 0 24.16 M0 72.48 C-1.02 52.58, -1.22 34.14, 0 24.16 M0 24.16 C1.98 7.91, 6.27 -0.76, 24.16 0 M0 24.16 C-1.55 9.63, 9.03 0.48, 24.16 0" stroke="#9c36b5" stroke-width="1" fill="none"></path></g><g stroke-linecap="round" transform="translate(241.37229167488533 1359.9001116071418) rotate(0 155.3005022321429 20.934709821428555)"><path d="M10.47 0 C75.33 -2.69, 135.55 -0.78, 300.13 0 C307.79 0.79, 311.76 5.74, 310.6 10.47 C309.5 17.52, 312.22 25.4, 310.6 31.4 C309.29 36.35, 307.63 44.18, 300.13 41.87 C225.55 40.53, 154.97 39.01, 10.47 41.87 C2.2 40.11, -3.07 38.94, 0 31.4 C3.03 27.48, -0.61 20.92, 0 10.47 C-0.15 5.7, 4.12 -2.63, 10.47 0" stroke="none" stroke-width="0" fill="#e1e3e5"></path><path d="M10.47 0 C110.45 -0.88, 207.82 1.01, 300.13 0 M10.47 0 C71.77 1.6, 132.27 1.76, 300.13 0 M300.13 0 C307.49 -0.1, 310.05 5.3, 310.6 10.47 M300.13 0 C307.86 -1.96, 311.65 3.91, 310.6 10.47 M310.6 10.47 C312.65 15.83, 311.1 21.81, 310.6 31.4 M310.6 10.47 C309.9 15.66, 310.89 19.89, 310.6 31.4 M310.6 31.4 C311.48 38.7, 307.03 42.97, 300.13 41.87 M310.6 31.4 C312.31 37.75, 306.4 42.69, 300.13 41.87 M300.13 41.87 C226.95 41.25, 151.19 40.61, 10.47 41.87 M300.13 41.87 C215.79 41.45, 131.88 41.48, 10.47 41.87 M10.47 41.87 C2.07 41.57, 0.19 37.84, 0 31.4 M10.47 41.87 C4.09 43.09, 1.26 37.59, 0 31.4 M0 31.4 C-0.53 24.96, 1.52 18.22, 0 10.47 M0 31.4 C-0.3 24.01, -0.33 17.51, 0 10.47 M0 10.47 C0.72 4.59, 2.77 1.87, 10.47 0 M0 10.47 C0.17 3.97, 2.88 0.13, 10.47 0" stroke="#9c36b5" stroke-width="1" fill="none"></path></g><g transform="translate(327.782840293747 1368.3348214285702) rotate(0 68.88995361328125 12.5)"><text x="68.88995361328125" y="17.52" font-family="Virgil, Segoe UI Emoji" font-size="20px" fill="#9c36b5" text-anchor="middle" style="white-space: pre;" direction="ltr" dominant-baseline="alphabetic">Add new place</text></g><g transform="translate(270.5120796213139 1113.856074364579) rotate(0 28.83606719970703 16.695288710567183)"><text x="0" y="23.400116656730887" font-family="Virgil, Segoe UI Emoji" font-size="26.71246193690741px" fill="#9c36b5" text-anchor="start" style="white-space: pre;" direction="ltr" dominant-baseline="alphabetic">title</text></g><g transform="translate(254.993106407028 1188.6473214285706) rotate(0 62.87944030761719 15.390625000000114)"><text x="0" y="21.57150000000008" font-family="Virgil, Segoe UI Emoji" font-size="24.625000000000092px" fill="#9c36b5" text-anchor="start" style="white-space: pre;" direction="ltr" dominant-baseline="alphabetic">description</text></g><g stroke-linecap="round" transform="translate(320.93339658559876 1288.9877232142853) rotate(0 71.74386160714283 25.16462053571422)"><path d="M12.58 0 C39.37 2.91, 68.27 -2.53, 130.91 0 C138.42 0.67, 141.6 1.07, 143.49 12.58 C141.08 23.27, 139.92 34.56, 143.49 37.75 C141.61 45.76, 139.6 50.91, 130.91 50.33 C81.12 50.13, 40.41 55.16, 12.58 50.33 C1.97 51.4, -2.98 46.22, 0 37.75 C-0.42 29.25, -2.09 20.2, 0 12.58 C0.83 0.96, 5.24 -1.31, 12.58 0" stroke="none" stroke-width="0" fill="#f8f0fc"></path><path d="M12.58 0 C55.51 0.29, 101.81 -2.14, 130.91 0 M12.58 0 C46.06 -0.66, 78.11 -0.3, 130.91 0 M130.91 0 C137.86 1.44, 141.5 3.79, 143.49 12.58 M130.91 0 C137.55 -1.04, 143.29 3.62, 143.49 12.58 M143.49 12.58 C145.01 22.74, 143.69 32.46, 143.49 37.75 M143.49 12.58 C144.11 22.6, 142.88 32.38, 143.49 37.75 M143.49 37.75 C144.93 47.41, 138.32 51.6, 130.91 50.33 M143.49 37.75 C141.85 43.91, 139.33 49.08, 130.91 50.33 M130.91 50.33 C94.24 49.83, 53.44 50.44, 12.58 50.33 M130.91 50.33 C101.93 49.8, 71.47 49.78, 12.58 50.33 M12.58 50.33 C3.16 50.63, 0.43 46.41, 0 37.75 M12.58 50.33 C5.74 50.19, 0.97 47.29, 0 37.75 M0 37.75 C2.12 29.83, 1.9 22.54, 0 12.58 M0 37.75 C0.79 31.85, 0.14 25.85, 0 12.58 M0 12.58 C-0.93 3.98, 4.06 1.48, 12.58 0 M0 12.58 C0.55 4.99, 2.33 0.91, 12.58 0" stroke="#9c36b5" stroke-width="1" fill="none"></path></g><g transform="translate(339.3707897212106 1298.2394449002932) rotate(0 49.306640625 16.695288710567183)"><text x="0" y="23.400116656730887" font-family="Virgil, Segoe UI Emoji" font-size="26.71246193690741px" fill="#9c36b5" text-anchor="start" style="white-space: pre;" direction="ltr" dominant-baseline="alphabetic">+ image</text></g><g stroke-linecap="round" transform="translate(1080.217276645844 1584.1350446428578) rotate(0 435.18164062500006 292.7265625)"><path d="M32 0 C283.63 -3.21, 535.88 -2.42, 838.36 0 M32 0 C275.93 -2.96, 520.02 -3.13, 838.36 0 M838.36 0 C861.63 0.12, 868.82 11.55, 870.36 32 M838.36 0 C860.5 -1.22, 871.3 10.56, 870.36 32 M870.36 32 C871.21 172.57, 870.9 314.05, 870.36 553.45 M870.36 32 C869.14 214.86, 868.89 398.16, 870.36 553.45 M870.36 553.45 C869.41 576.58, 858.04 587.26, 838.36 585.45 M870.36 553.45 C868.83 576.1, 859.87 583.88, 838.36 585.45 M838.36 585.45 C597.88 582.76, 355.99 583.11, 32 585.45 M838.36 585.45 C656.43 583.71, 474.46 583.9, 32 585.45 M32 585.45 C10.16 585.38, -0.03 573.59, 0 553.45 M32 585.45 C9.45 585.4, -0.69 573.08, 0 553.45 M0 553.45 C1.3 449.14, 0.12 344.07, 0 32 M0 553.45 C0.63 446.07, -0.03 339.07, 0 32 M0 32 C-1.05 10.26, 11.58 -1.23, 32 0 M0 32 C0.71 8.85, 9.26 1.33, 32 0" stroke="#1e1e1e" stroke-width="1" fill="none"></path></g><g stroke-linecap="round"><g transform="translate(1080.830557895844 1693.3889508928578) rotate(0 434.41992187500006 0.1171875)"><path d="M-0.9 -1.16 C143.8 -0.94, 724.13 -0.14, 869.13 0.26 M0.83 0.85 C145.31 1.37, 723.73 2.05, 868.33 1.82" stroke="#1e1e1e" stroke-width="1" fill="none"></path></g></g><mask></mask><g transform="translate(1126.971182895844 1612.2415781253858) rotate(0 77.92011260986328 22.64595200873589)"><text x="0" y="31.740566335444292" font-family="Virgil, Segoe UI Emoji" font-size="36.233523213977506px" fill="#9c36b5" text-anchor="start" style="white-space: pre;" direction="ltr" dominant-baseline="alphabetic">App title</text></g><g stroke-linecap="round" transform="translate(1557.4946203958439 1620.4905133928578) rotate(0 65.447265625 17.5)"><path d="M8.75 0 C47.2 0.16, 81.16 1.3, 122.14 0 M8.75 0 C30.92 0.37, 55 -0.6, 122.14 0 M122.14 0 C128.79 -0.09, 130.29 3.44, 130.89 8.75 M122.14 0 C127.22 0.88, 130.62 2.89, 130.89 8.75 M130.89 8.75 C129.56 16.54, 129.43 22.29, 130.89 26.25 M130.89 8.75 C130.09 13.62, 130.23 17.42, 130.89 26.25 M130.89 26.25 C131.04 30.72, 127.96 36.59, 122.14 35 M130.89 26.25 C128.95 34.33, 128.08 35.47, 122.14 35 M122.14 35 C81.52 34.91, 44.25 33.97, 8.75 35 M122.14 35 C77.3 34.36, 31.95 34.93, 8.75 35 M8.75 35 C2.31 33.51, -2 31.6, 0 26.25 M8.75 35 C1.77 37.29, 0.11 31, 0 26.25 M0 26.25 C0.97 24.02, -0.07 17.42, 0 8.75 M0 26.25 C0.49 19.22, 0.36 12.58, 0 8.75 M0 8.75 C-1.22 4.07, 1.35 0.83, 8.75 0 M0 8.75 C-1.38 1.4, 4.27 -0.66, 8.75 0" stroke="#2f9e44" stroke-width="1" fill="none"></path></g><g transform="translate(1595.171912265961 1625.4905133928578) rotate(0 27.769973754882812 12.5)"><text x="27.769973754882812" y="17.52" font-family="Virgil, Segoe UI Emoji" font-size="20px" fill="#2f9e44" text-anchor="middle" style="white-space: pre;" direction="ltr" dominant-baseline="alphabetic">Users</text></g><g stroke-linecap="round" transform="translate(1303.9431498352674 1796.2114955357151) rotate(0 167.92689732142856 25.54129464285711)"><path d="M12.77 0 C110.65 -0.33, 211.42 -2.82, 323.08 0 M12.77 0 C119.83 1.15, 226.09 1.37, 323.08 0 M323.08 0 C330.94 0.76, 335.62 4.24, 335.85 12.77 M323.08 0 C333.69 1.18, 334.27 2.38, 335.85 12.77 M335.85 12.77 C334.3 20.86, 337.42 29.21, 335.85 38.31 M335.85 12.77 C335.76 22.05, 335.68 33.5, 335.85 38.31 M335.85 38.31 C334.17 48.78, 331.68 51.49, 323.08 51.08 M335.85 38.31 C336.95 45.11, 332.9 49.7, 323.08 51.08 M323.08 51.08 C242.76 48.86, 159.65 49.21, 12.77 51.08 M323.08 51.08 C248.3 50.5, 173.23 50.86, 12.77 51.08 M12.77 51.08 C3.26 53.07, 0.1 45.88, 0 38.31 M12.77 51.08 C2.27 48.92, -0.31 47.89, 0 38.31 M0 38.31 C1.45 27.4, -0.37 19.5, 0 12.77 M0 38.31 C-0.69 32.8, -0.86 26.55, 0 12.77 M0 12.77 C-1.2 2.94, 5.43 -0.57, 12.77 0 M0 12.77 C-1.39 3.58, 2.75 -1.48, 12.77 0" stroke="#9c36b5" stroke-width="1" fill="none"></path></g><g stroke-linecap="round" transform="translate(1310.3250599926146 1862.494977678572) rotate(0 166.96072377122414 48.32310267857133)"><path d="M24.16 0 C131.96 -3.26, 240.23 -1.56, 309.76 0 M24.16 0 C94.44 0.3, 164.93 0.39, 309.76 0 M309.76 0 C325.63 -0.02, 335.74 9.08, 333.92 24.16 M309.76 0 C324.28 -1.88, 335.17 6.01, 333.92 24.16 M333.92 24.16 C335.39 36.6, 335.4 51.02, 333.92 72.48 M333.92 24.16 C333.95 42.22, 333.11 59.66, 333.92 72.48 M333.92 72.48 C334.01 89, 326.82 95.15, 309.76 96.65 M333.92 72.48 C335.22 87.21, 325.02 97.75, 309.76 96.65 M309.76 96.65 C247.85 96.08, 185.15 95.3, 24.16 96.65 M309.76 96.65 C224.02 94.86, 139.42 95.79, 24.16 96.65 M24.16 96.65 C8.15 95.7, -1.73 86.71, 0 72.48 M24.16 96.65 C7.74 97.71, 1.98 88.28, 0 72.48 M0 72.48 C-0.75 62.62, -1.58 51.55, 0 24.16 M0 72.48 C-0.49 62.23, -0.31 50.49, 0 24.16 M0 24.16 C1.17 7.48, 6.84 -0.59, 24.16 0 M0 24.16 C-1.5 6.58, 7.62 1.51, 24.16 0" stroke="#9c36b5" stroke-width="1" fill="none"></path></g><g stroke-linecap="round" transform="translate(1310.9371835958796 2049.7829241071436) rotate(0 155.3005022321429 20.93470982142844)"><path d="M10.47 0 C116.86 0.63, 217.9 0.12, 300.13 0 C308.84 3.37, 308.79 0.89, 310.6 10.47 C308.41 14.28, 313.19 23.67, 310.6 31.4 C309.05 34.85, 309.24 43.23, 300.13 41.87 C201.53 43.04, 98.67 45.37, 10.47 41.87 C4.45 40.43, 3.2 40.68, 0 31.4 C0.76 25.68, 2.06 26.11, 0 10.47 C0.1 2.05, 0.6 -1.93, 10.47 0" stroke="none" stroke-width="0" fill="#e1e3e5"></path><path d="M10.47 0 C125.98 2.21, 239.38 2.29, 300.13 0 M10.47 0 C95.75 -0.28, 181.44 -0.57, 300.13 0 M300.13 0 C308.93 1.03, 309.22 1.86, 310.6 10.47 M300.13 0 C308.36 -2.05, 310.41 1.96, 310.6 10.47 M310.6 10.47 C312.59 14.42, 311.93 21.18, 310.6 31.4 M310.6 10.47 C309.76 16.3, 310.64 20.37, 310.6 31.4 M310.6 31.4 C311.56 36.89, 308.24 40.67, 300.13 41.87 M310.6 31.4 C309.76 39.49, 305.19 44.06, 300.13 41.87 M300.13 41.87 C219.7 41.05, 141.03 41.39, 10.47 41.87 M300.13 41.87 C234.37 42.09, 169.39 40.99, 10.47 41.87 M10.47 41.87 C1.76 39.99, -0.27 39.3, 0 31.4 M10.47 41.87 C5.47 41.56, -1.77 40.01, 0 31.4 M0 31.4 C-1.19 26.83, -1.54 19.81, 0 10.47 M0 31.4 C-0.44 23.26, 0.75 16.14, 0 10.47 M0 10.47 C-1.21 2.9, 2.18 -1.29, 10.47 0 M0 10.47 C-0.43 4.99, 5.67 -0.98, 10.47 0" stroke="#9c36b5" stroke-width="1" fill="none"></path></g><g transform="translate(1402.4277416751902 2058.217633928572) rotate(0 63.80994415283203 12.5)"><text x="63.80994415283203" y="17.52" font-family="Virgil, Segoe UI Emoji" font-size="20px" fill="#9c36b5" text-anchor="middle" style="white-space: pre;" direction="ltr" dominant-baseline="alphabetic">update place</text></g><g transform="translate(1340.076971542308 1803.7388868645808) rotate(0 28.83606719970703 16.695288710567183)"><text x="0" y="23.400116656730887" font-family="Virgil, Segoe UI Emoji" font-size="26.71246193690741px" fill="#9c36b5" text-anchor="start" style="white-space: pre;" direction="ltr" dominant-baseline="alphabetic">title</text></g><g transform="translate(1324.5579983280222 1878.530133928572) rotate(0 62.87944030761719 15.390625)"><text x="0" y="21.57150000000008" font-family="Virgil, Segoe UI Emoji" font-size="24.625000000000092px" fill="#9c36b5" text-anchor="start" style="white-space: pre;" direction="ltr" dominant-baseline="alphabetic">description</text></g><g stroke-linecap="round" transform="translate(1390.4982885065929 1978.8705357142871) rotate(0 71.74386160714283 25.16462053571422)"><path d="M12.58 0 C57.25 1.68, 106.13 -0.67, 130.91 0 C137.94 2.57, 146.36 2.64, 143.49 12.58 C145.42 16.57, 146.73 24.98, 143.49 37.75 C140.74 44.91, 139.66 51.29, 130.91 50.33 C96.65 50.91, 66.96 52.37, 12.58 50.33 C2.73 52.3, 3.21 46.24, 0 37.75 C3.86 30.02, -1.24 27.9, 0 12.58 C-2.3 2, 4.11 -3.55, 12.58 0" stroke="none" stroke-width="0" fill="#f8f0fc"></path><path d="M12.58 0 C45.26 0.15, 76.4 2.21, 130.91 0 M12.58 0 C54.7 0.08, 95.65 0.3, 130.91 0 M130.91 0 C138.34 1.8, 141.83 6, 143.49 12.58 M130.91 0 C137.76 1.31, 143.66 2.62, 143.49 12.58 M143.49 12.58 C145.65 20.2, 144.1 28.6, 143.49 37.75 M143.49 12.58 C143.26 18.74, 142.8 24.88, 143.49 37.75 M143.49 37.75 C142.98 46.06, 139.27 49.14, 130.91 50.33 M143.49 37.75 C142.28 46.08, 138.6 48.62, 130.91 50.33 M130.91 50.33 C109.22 49.84, 82.61 48.01, 12.58 50.33 M130.91 50.33 C107.41 50.74, 81.42 51.58, 12.58 50.33 M12.58 50.33 C3.15 49.92, 0.91 44.9, 0 37.75 M12.58 50.33 C4.9 48.51, -1.41 47.46, 0 37.75 M0 37.75 C-1.42 33.35, -0.68 25.39, 0 12.58 M0 37.75 C-0.02 31.6, 1.11 23.71, 0 12.58 M0 12.58 C1.24 4.51, 2.93 1.12, 12.58 0 M0 12.58 C-1.57 2.21, 2.19 1.11, 12.58 0" stroke="#9c36b5" stroke-width="1" fill="none"></path></g><g transform="translate(1408.9356816422046 1988.1222574002945) rotate(0 49.306640625 16.695288710567183)"><text x="0" y="23.400116656730887" font-family="Virgil, Segoe UI Emoji" font-size="26.71246193690741px" fill="#9c36b5" text-anchor="start" style="white-space: pre;" direction="ltr" dominant-baseline="alphabetic">+ image</text></g><g stroke-linecap="round"><g transform="translate(1217.9412526697038 1393.2852353974922) rotate(0 -0.2786690848215585 92.93108258928555)"><path d="M0.05 -0.38 C-0.05 30.69, -0.65 155.09, -0.9 186.28 M-1.38 -1.62 C-1.65 29.08, -2.42 153.29, -2.03 184.37" stroke="#868e96" stroke-width="1" fill="none"></path></g><g transform="translate(1217.9412526697038 1393.2852353974922) rotate(0 -0.2786690848215585 92.93108258928555)"><path d="M-10.62 160.89 C-8.9 166.79, -5.21 172.32, -2.03 184.37 M-10.62 160.89 C-6.62 170.2, -5.01 177.4, -2.03 184.37" stroke="#868e96" stroke-width="1" fill="none"></path></g><g transform="translate(1217.9412526697038 1393.2852353974922) rotate(0 -0.2786690848215585 92.93108258928555)"><path d="M6.48 160.87 C3.48 166.78, 2.45 172.31, -2.03 184.37 M6.48 160.87 C4.09 170.33, -0.71 177.53, -2.03 184.37" stroke="#868e96" stroke-width="1" fill="none"></path></g></g><mask></mask><g transform="translate(1356.7397581927357 1735.6841517857129) rotate(0 103.85565212454156 15.866495047822582)"><text x="0" y="22.238479459028145" font-family="Virgil, Segoe UI Emoji" font-size="25.38639207651615px" fill="#9c36b5" text-anchor="start" style="white-space: pre;" direction="ltr" dominant-baseline="alphabetic">Update Location</text></g><g stroke-linecap="round"><g transform="translate(1728.0905976677336 1380.9687668639413) rotate(0 141.54610770089266 84.6275111607141)"><path d="M-0.76 0.37 C46.14 28.46, 234.64 140.04, 281.91 168.12 M1.05 -0.48 C48.25 27.75, 237.18 140.66, 283.99 169.07" stroke="#868e96" stroke-width="1" fill="none"></path></g><g transform="translate(1728.0905976677336 1380.9687668639413) rotate(0 141.54610770089266 84.6275111607141)"><path d="M259.46 164.29 C268.44 164.1, 274.31 167.29, 283.99 169.07 M259.46 164.29 C264.97 165.96, 273.47 167.01, 283.99 169.07" stroke="#868e96" stroke-width="1" fill="none"></path></g><g transform="translate(1728.0905976677336 1380.9687668639413) rotate(0 141.54610770089266 84.6275111607141)"><path d="M268.27 149.63 C274.19 154.39, 277.06 162.59, 283.99 169.07 M268.27 149.63 C271.29 155.27, 277.45 160.22, 283.99 169.07" stroke="#868e96" stroke-width="1" fill="none"></path></g></g><mask></mask><g stroke-linecap="round" transform="translate(2024.4230220886634 1580.5747767857051) rotate(0 435.181640625 292.7265625)"><path d="M32 0 C248.73 2.79, 465.93 1.97, 838.36 0 M32 0 C350.21 2.65, 668.72 2.62, 838.36 0 M838.36 0 C859.95 0.26, 868.87 10.38, 870.36 32 M838.36 0 C858.38 -1.35, 871.07 11.57, 870.36 32 M870.36 32 C872.32 137.17, 872.51 242.59, 870.36 553.45 M870.36 32 C872.56 222.03, 872.55 411.69, 870.36 553.45 M870.36 553.45 C871.47 575.42, 860.85 585.02, 838.36 585.45 M870.36 553.45 C869.2 574.84, 861.32 584.27, 838.36 585.45 M838.36 585.45 C645.76 584.15, 450.91 584.25, 32 585.45 M838.36 585.45 C532.53 586.47, 227.1 585.79, 32 585.45 M32 585.45 C12.15 584.15, -1.47 573.46, 0 553.45 M32 585.45 C12.65 586.02, 0.24 576.95, 0 553.45 M0 553.45 C-0.23 414.4, 0.1 274.56, 0 32 M0 553.45 C-0.81 438.53, -1.14 324.23, 0 32 M0 32 C-0.67 10.17, 12.64 0.4, 32 0 M0 32 C-0.69 10.91, 12.96 0.72, 32 0" stroke="#1e1e1e" stroke-width="1" fill="none"></path></g><g stroke-linecap="round"><g transform="translate(2025.0363033386634 1689.8286830357051) rotate(0 434.419921875 0.1171875)"><path d="M1.02 1.1 C145.92 1.29, 723.83 1.65, 868.62 1.37 M0.1 0.63 C144.89 0.5, 722.66 -0.1, 867.56 -0.16" stroke="#1e1e1e" stroke-width="1" fill="none"></path></g></g><mask></mask><g transform="translate(2071.1769283386634 1608.6813102682331) rotate(0 77.92011260986328 22.64595200873589)"><text x="0" y="31.740566335444292" font-family="Virgil, Segoe UI Emoji" font-size="36.233523213977506px" fill="#9c36b5" text-anchor="start" style="white-space: pre;" direction="ltr" dominant-baseline="alphabetic">App title</text></g><g stroke-linecap="round" transform="translate(2501.700365838663 1616.9302455357051) rotate(0 65.447265625 17.5)"><path d="M8.75 0 C39.31 -0.7, 74.57 0.95, 122.14 0 M8.75 0 C52 -0.29, 96.16 -0.73, 122.14 0 M122.14 0 C128.59 0.78, 128.94 4.32, 130.89 8.75 M122.14 0 C125.95 1.42, 129.7 4.9, 130.89 8.75 M130.89 8.75 C130.53 14.24, 131.93 18.21, 130.89 26.25 M130.89 8.75 C131.5 14.01, 130.55 19.66, 130.89 26.25 M130.89 26.25 C132.31 31.05, 126.77 34.23, 122.14 35 M130.89 26.25 C129.68 34.21, 129.12 32.8, 122.14 35 M122.14 35 C81.49 33.38, 41.38 34.23, 8.75 35 M122.14 35 C98.3 33.6, 76.78 34.51, 8.75 35 M8.75 35 C3.13 36.88, -0.65 32.03, 0 26.25 M8.75 35 C1.26 34.18, 1.37 32.21, 0 26.25 M0 26.25 C1.87 22.11, -1.02 15.05, 0 8.75 M0 26.25 C0.92 20.78, -0.21 15.06, 0 8.75 M0 8.75 C1.99 3.54, 3.88 0.07, 8.75 0 M0 8.75 C-2.06 5.05, 3.14 -1.97, 8.75 0" stroke="#2f9e44" stroke-width="1" fill="none"></path></g><g transform="translate(2539.37765770878 1621.9302455357051) rotate(0 27.769973754882812 12.5)"><text x="27.769973754882812" y="17.52" font-family="Virgil, Segoe UI Emoji" font-size="20px" fill="#2f9e44" text-anchor="middle" style="white-space: pre;" direction="ltr" dominant-baseline="alphabetic">Users</text></g><g stroke-linecap="round" transform="translate(2289.082661181556 2060.095424107134) rotate(0 155.3005022321429 20.93470982142844)"><path d="M10.47 0 C83.83 -4.29, 161.38 0.1, 300.13 0 C308.15 -1.79, 311.57 5.35, 310.6 10.47 C312.47 18.22, 308.65 22.9, 310.6 31.4 C313.17 37.88, 308.26 41.34, 300.13 41.87 C225.75 40.3, 157.13 41.43, 10.47 41.87 C4.99 44.76, -3.39 36.23, 0 31.4 C3.08 24.92, -1.62 21.81, 0 10.47 C-1.13 1.03, 6.37 2.53, 10.47 0" stroke="none" stroke-width="0" fill="#e1e3e5"></path><path d="M10.47 0 C100.82 0.76, 190.72 2.08, 300.13 0 M10.47 0 C108.04 -1.06, 206.54 -0.88, 300.13 0 M300.13 0 C305.65 1.28, 312.37 2.95, 310.6 10.47 M300.13 0 C309.11 1.21, 312.59 3.75, 310.6 10.47 M310.6 10.47 C310.23 16.89, 310.71 26.75, 310.6 31.4 M310.6 10.47 C309.95 16.59, 310.97 19.91, 310.6 31.4 M310.6 31.4 C311.85 39.96, 306.22 42.32, 300.13 41.87 M310.6 31.4 C309.32 40.05, 306.81 39.66, 300.13 41.87 M300.13 41.87 C190.78 41.56, 83.78 40.43, 10.47 41.87 M300.13 41.87 C185.4 41.55, 72.19 41.86, 10.47 41.87 M10.47 41.87 C3.9 40.27, 1.1 40.35, 0 31.4 M10.47 41.87 C5.42 40.34, 0.03 38.89, 0 31.4 M0 31.4 C0.45 25.22, 0.26 22.23, 0 10.47 M0 31.4 C-1 25.4, -0.01 16.68, 0 10.47 M0 10.47 C-0.19 2.26, 1.79 2, 10.47 0 M0 10.47 C-1.09 3.47, 5.28 -1.98, 10.47 0" stroke="#9c36b5" stroke-width="1" fill="none"></path></g><g transform="translate(2376.093231162722 2068.5301339285625) rotate(0 68.28993225097656 12.5)"><text x="68.28993225097656" y="17.52" font-family="Virgil, Segoe UI Emoji" font-size="20px" fill="#9c36b5" text-anchor="middle" style="white-space: pre;" direction="ltr" dominant-baseline="alphabetic">confirm delete</text></g><g transform="translate(2300.945503635555 1732.1238839285602) rotate(0 137.39453125 15.866495047822582)"><text x="0" y="22.238479459028145" font-family="Virgil, Segoe UI Emoji" font-size="25.38639207651615px" fill="#9c36b5" text-anchor="start" style="white-space: pre;" direction="ltr" dominant-baseline="alphabetic">Delete this location ?</text></g><g stroke-linecap="round" transform="translate(2327.952633948346 1780.1761067708253) rotate(0 111.14908854166674 125.08393787202363)"><path d="M32 0 C90.75 -0.15, 150.28 -0.81, 190.3 0 M32 0 C82.47 1.33, 132.78 0.07, 190.3 0 M190.3 0 C211.91 -0.17, 221.15 10.05, 222.3 32 M190.3 0 C211.76 -0.18, 222.82 12.68, 222.3 32 M222.3 32 C224.71 106.93, 221.78 179.76, 222.3 218.17 M222.3 32 C220.91 84.8, 221.6 138.04, 222.3 218.17 M222.3 218.17 C222.7 239.7, 211.38 250.28, 190.3 250.17 M222.3 218.17 C222.38 237.44, 209.9 250.31, 190.3 250.17 M190.3 250.17 C147.83 250.32, 108.33 250.09, 32 250.17 M190.3 250.17 C128.61 250.83, 66.39 250.94, 32 250.17 M32 250.17 C12.51 249.22, 1 240.72, 0 218.17 M32 250.17 C9.34 251.75, 0.37 240.81, 0 218.17 M0 218.17 C1.96 172.38, 2.38 131.06, 0 32 M0 218.17 C0.23 148.08, 0.41 77.52, 0 32 M0 32 C0.82 9.72, 10.81 -0.6, 32 0 M0 32 C1.87 10.31, 12.01 0.46, 32 0" stroke="#9c36b5" stroke-width="1" fill="none"></path></g><g stroke-linecap="round"><g transform="translate(2329.0594047816794 1899.4664713541583) rotate(0 111.82942708333326 -1.1653645833332575)"><path d="M-0.62 -0.34 C36.6 -0.63, 185.44 -1.71, 222.65 -2.14 M1.26 -1.56 C38.9 -2.21, 187.55 -4.1, 224.83 -4.16" stroke="#9c36b5" stroke-width="1" fill="none"></path></g></g><mask></mask><g transform="translate(2380.6219047816794 1915.0263671874923) rotate(0 59.79676818847656 14.005318928544284)"><text x="0" y="19.629855010247823" font-family="Virgil, Segoe UI Emoji" font-size="22.40851028567103px" fill="#9c36b5" text-anchor="start" style="white-space: pre;" direction="ltr" dominant-baseline="alphabetic">Location 2</text></g><g stroke-linecap="round" transform="translate(2401.780758948346 1808.7698567708253) rotate(0 34.04947916666663 32.59114583333326)"><path d="M43.75 8.25 C46.15 12.83, 51.58 16.97, 59.35 24.75 M43.75 8.25 C46.77 11.73, 50.96 15.73, 59.35 24.75 M59.35 24.75 C68.55 34.75, 70.02 34.47, 59.35 41.25 M59.35 24.75 C68.43 34.21, 69.48 30.83, 59.35 41.25 M59.35 41.25 C54.64 44.54, 48.74 50.87, 43.75 56.93 M59.35 41.25 C55.06 45.53, 51.04 48.79, 43.75 56.93 M43.75 56.93 C33.5 65.3, 34.13 65.13, 26.25 56.93 M43.75 56.93 C36.38 63, 34.08 64.24, 26.25 56.93 M26.25 56.93 C22.47 54.05, 17.6 49.95, 8.75 41.25 M26.25 56.93 C21 52.43, 14.31 47.48, 8.75 41.25 M8.75 41.25 C0.32 34.14, -1.26 32.21, 8.75 24.75 M8.75 41.25 C-0.09 34.41, -1.95 34.89, 8.75 24.75 M8.75 24.75 C13.64 19.88, 22.48 14.41, 26.25 8.25 M8.75 24.75 C15.75 17.94, 23.48 11.49, 26.25 8.25 M26.25 8.25 C36.16 0.4, 35.42 -0.27, 43.75 8.25 M26.25 8.25 C33.76 -0.68, 32.9 -1.58, 43.75 8.25" stroke="#9c36b5" stroke-width="1" fill="none"></path></g><g stroke-linecap="round" transform="translate(2351.676592281679 1960.7522786458244) rotate(0 86.7919921875 18.767903645833258)"><path d="M9.38 0 C51.07 -3.89, 95.13 -3.07, 164.2 0 C171.19 3.13, 174.87 0.93, 173.58 9.38 C175.69 13.97, 173.89 19.48, 173.58 28.15 C173.81 34.41, 170.85 34.26, 164.2 37.54 C120.1 39.35, 79.05 38.23, 9.38 37.54 C2.08 38.99, -1.36 36.66, 0 28.15 C-1.42 19.36, 1.21 16.88, 0 9.38 C-2.6 1.38, 0.34 2.29, 9.38 0" stroke="none" stroke-width="0" fill="#9c36b5"></path><path d="M9.38 0 C43.16 0.79, 73.34 -0.4, 164.2 0 M9.38 0 C54.56 0.4, 99.85 1.35, 164.2 0 M164.2 0 C172.38 1.47, 173.87 4.18, 173.58 9.38 M164.2 0 C171.83 -2.17, 173.93 2.8, 173.58 9.38 M173.58 9.38 C172.89 14.21, 173.02 19.83, 173.58 28.15 M173.58 9.38 C173.6 14.36, 172.85 21.07, 173.58 28.15 M173.58 28.15 C172.71 34.36, 171.66 35.64, 164.2 37.54 M173.58 28.15 C172.66 33.47, 169.27 39.66, 164.2 37.54 M164.2 37.54 C103.5 38.85, 42.82 40.04, 9.38 37.54 M164.2 37.54 C124.55 39.17, 86.21 39.05, 9.38 37.54 M9.38 37.54 C1.86 36.75, -0.08 35.64, 0 28.15 M9.38 37.54 C1.18 39.43, 1.24 36.26, 0 28.15 M0 28.15 C1.49 23.53, 1.98 17.11, 0 9.38 M0 28.15 C0.75 23.26, 0.53 18.85, 0 9.38 M0 9.38 C0.42 2.86, 2.05 -0.59, 9.38 0 M0 9.38 C-2.1 1.55, 5.23 -0.14, 9.38 0" stroke="#9c36b5" stroke-width="1" fill="none"></path></g><g transform="translate(2376.7482068650124 1968.0081380208244) rotate(0 66.75700124104821 14.608948601768589)"><text x="0" y="20.475902360238855" font-family="Virgil, Segoe UI Emoji" font-size="23.37431776282974px" fill="#ffffff" text-anchor="start" style="white-space: pre;" direction="ltr" dominant-baseline="alphabetic">view on map</text></g></svg>